<svg id="svg" version="1.1" width="400" height="400" viewBox="0 0 400 400" xmlns="http://www.w3.org/2000/svg" xmlns:xlink="http://www.w3.org/1999/xlink" ><g id="svgg"><path id="path0" d="M191.800 91.236 C 186.333 91.864,182.266 92.428,180.600 92.789 C 179.720 92.979,177.920 93.348,176.600 93.609 C 175.280 93.870,173.840 94.220,173.400 94.386 C 172.960 94.553,171.880 94.912,171.000 95.185 C 164.173 97.300,155.035 101.203,150.176 104.079 C 146.625 106.181,141.283 109.500,140.707 109.963 C 140.428 110.186,137.926 112.171,135.146 114.372 C 119.667 126.631,105.617 147.809,100.762 166.200 C 100.588 166.860,100.254 168.120,100.019 169.000 C 95.732 185.116,96.012 205.981,100.740 222.800 C 108.151 249.157,125.187 271.072,149.390 285.381 C 151.082 286.382,152.536 287.200,152.620 287.200 C 152.705 287.200,154.175 287.884,155.887 288.719 C 176.843 298.947,201.996 301.812,224.400 296.524 C 229.077 295.420,238.054 292.528,241.051 291.161 C 248.374 287.818,250.804 286.558,255.600 283.612 C 268.323 275.800,278.764 265.842,287.341 253.342 C 289.023 250.889,290.400 248.793,290.400 248.682 C 290.400 248.572,291.093 247.338,291.939 245.941 C 293.526 243.320,297.069 236.071,297.970 233.600 C 298.251 232.830,298.624 231.840,298.800 231.400 C 299.273 230.215,299.845 228.427,300.400 226.400 C 300.671 225.410,301.046 224.150,301.233 223.600 C 301.872 221.721,303.497 214.604,303.928 211.800 C 304.164 210.260,304.547 207.809,304.779 206.354 C 305.330 202.889,305.326 187.888,304.772 183.800 C 303.720 176.035,303.135 173.206,300.805 164.600 C 299.590 160.112,295.333 150.249,292.328 144.960 C 291.216 143.002,289.946 140.749,289.507 139.954 C 286.093 133.769,275.802 121.748,269.203 116.237 C 267.334 114.677,265.444 113.065,265.003 112.656 C 259.974 107.997,243.126 98.953,234.400 96.230 C 233.190 95.852,231.840 95.389,231.400 95.202 C 230.960 95.014,230.150 94.772,229.600 94.663 C 229.050 94.555,227.160 94.088,225.400 93.626 C 222.246 92.798,219.497 92.319,213.600 91.570 C 209.246 91.018,195.531 90.807,191.800 91.236 M212.015 100.980 C 240.990 104.645,265.434 120.137,281.156 144.800 C 294.588 165.870,299.200 195.574,292.582 218.400 C 292.232 219.610,291.798 221.140,291.620 221.800 C 291.195 223.368,290.061 226.759,289.580 227.900 C 289.371 228.395,289.044 229.205,288.854 229.700 C 280.316 251.876,259.836 273.087,239.087 281.242 C 237.939 281.693,236.460 282.301,235.800 282.592 C 230.880 284.766,223.980 286.753,217.200 287.950 C 215.990 288.163,213.909 288.532,212.576 288.769 C 209.595 289.299,192.383 289.341,189.731 288.824 C 188.669 288.618,186.540 288.248,185.000 288.004 C 178.982 287.048,171.446 284.904,166.568 282.759 C 165.670 282.365,164.008 281.676,162.875 281.230 C 158.952 279.683,149.906 274.582,146.332 271.900 C 145.820 271.516,144.430 270.486,143.244 269.612 C 139.814 267.085,133.181 260.749,129.960 256.923 C 128.332 254.989,126.662 253.045,126.248 252.603 C 123.545 249.718,116.127 236.907,113.855 231.200 C 113.460 230.210,112.981 229.040,112.789 228.600 C 112.341 227.572,111.207 224.175,110.753 222.500 C 110.559 221.785,110.217 220.525,109.994 219.700 C 105.858 204.410,105.426 187.153,108.845 173.800 C 110.431 167.603,111.971 162.544,112.985 160.200 C 116.389 152.327,118.612 148.172,122.617 142.200 C 130.620 130.264,142.488 119.226,154.410 112.630 C 172.100 102.843,193.126 98.591,212.015 100.980 M212.423 132.872 C 211.780 134.421,208.376 146.239,208.122 147.806 C 207.901 149.165,207.951 149.261,208.811 149.135 C 209.738 149.000,210.355 147.527,212.050 141.400 C 212.294 140.520,212.631 139.350,212.800 138.800 C 214.362 133.717,214.511 132.296,213.504 132.087 C 213.070 131.997,212.664 132.292,212.423 132.872 M192.045 135.122 C 187.229 136.983,187.782 142.337,193.358 147.822 C 196.969 151.375,197.570 151.607,199.574 150.218 C 207.342 144.835,209.250 137.213,203.390 134.975 C 201.784 134.362,201.330 134.332,200.256 134.769 C 198.105 135.646,197.343 135.694,196.071 135.037 C 194.567 134.259,194.261 134.265,192.045 135.122 M182.090 139.709 C 180.500 141.310,179.200 142.838,179.200 143.107 C 179.200 143.851,184.902 149.193,185.700 149.197 C 187.143 149.203,186.440 147.502,184.125 145.381 L 181.850 143.298 184.125 140.913 C 188.501 136.325,186.580 135.189,182.090 139.709 M196.200 137.600 C 197.708 138.598,198.222 138.598,199.491 137.600 C 201.633 135.915,204.800 137.124,204.800 139.627 C 204.800 142.283,199.894 148.400,197.763 148.400 C 196.704 148.400,192.163 143.687,191.352 141.747 C 189.789 138.005,192.854 135.384,196.200 137.600 M216.205 137.192 C 215.848 137.769,216.516 138.783,218.569 140.783 C 220.844 142.999,220.857 142.849,218.168 145.668 C 215.935 148.009,215.638 148.878,216.984 149.139 C 217.935 149.324,223.200 144.124,223.200 143.000 C 223.200 141.152,216.960 135.971,216.205 137.192 M176.939 171.303 C 175.956 171.742,174.745 174.794,169.997 188.800 C 164.483 205.067,164.893 204.739,159.200 197.443 C 158.870 197.021,158.051 196.028,157.380 195.237 C 156.709 194.447,155.553 192.990,154.811 192.000 C 150.884 186.760,144.724 183.359,139.735 183.677 C 136.423 183.888,136.605 185.040,141.555 195.200 C 145.555 203.408,146.620 205.250,152.320 213.800 C 158.321 222.801,158.081 221.566,156.051 233.000 C 153.158 249.291,156.125 256.800,165.455 256.800 C 166.269 256.800,168.095 257.002,169.513 257.249 L 172.092 257.698 174.058 255.733 C 176.691 253.099,178.356 248.542,179.586 240.600 C 180.498 234.712,181.898 230.367,186.028 220.600 C 186.518 219.439,191.455 205.964,191.780 204.900 C 192.540 202.404,193.454 203.095,194.185 206.717 C 194.571 208.633,195.033 210.830,195.212 211.600 C 195.391 212.370,195.743 214.260,195.995 215.800 C 196.247 217.340,196.612 219.410,196.807 220.400 C 197.002 221.390,197.346 223.190,197.571 224.400 C 198.874 231.396,199.747 234.460,201.410 237.869 C 202.395 239.887,203.201 241.777,203.201 242.069 C 203.211 245.317,215.204 250.352,219.277 248.818 C 223.769 247.125,223.884 246.596,221.827 237.009 C 220.575 231.170,220.517 229.180,221.571 228.226 C 223.062 226.877,223.944 227.484,232.200 235.545 C 245.361 248.394,246.750 249.245,251.964 247.656 C 253.414 247.214,255.072 246.753,255.649 246.631 C 261.577 245.383,258.178 239.493,244.800 227.831 C 243.810 226.968,241.622 224.971,239.937 223.393 C 237.641 221.242,235.920 220.062,233.061 218.681 C 227.765 216.121,227.497 215.246,230.886 211.579 C 231.609 210.797,234.210 207.917,236.666 205.179 C 242.951 198.173,247.871 194.186,255.722 189.740 C 263.925 185.094,264.800 184.400,264.800 182.551 C 264.800 180.288,261.237 178.487,257.200 178.708 C 246.146 179.313,247.153 178.948,241.197 184.512 C 239.731 185.880,236.208 189.070,233.367 191.600 C 230.525 194.130,225.694 198.673,222.630 201.695 C 215.125 209.100,215.038 209.106,212.816 202.400 C 212.124 200.310,211.404 198.240,211.218 197.800 C 211.031 197.360,210.473 195.920,209.979 194.600 C 207.412 187.749,205.309 185.218,201.200 184.035 C 197.792 183.054,197.600 182.919,197.594 181.509 C 197.578 177.938,195.857 175.403,192.898 174.589 C 191.634 174.242,189.250 173.486,187.600 172.910 C 184.165 171.710,178.082 170.793,176.939 171.303 " stroke="none" fill="#f7f7f7" fill-rule="evenodd"></path><path id="path1" d="M0.000 200.000 L 0.000 400.000 200.000 400.000 L 400.000 400.000 400.000 200.000 L 400.000 0.000 200.000 0.000 L 0.000 0.000 0.000 200.000 M213.080 90.618 C 218.366 91.309,223.004 92.132,225.400 92.804 C 226.280 93.051,227.630 93.409,228.400 93.600 C 234.482 95.107,237.303 96.086,243.400 98.809 C 266.289 109.028,285.473 127.570,295.465 149.132 C 298.009 154.621,298.165 154.980,299.808 159.152 C 308.959 182.384,307.978 214.412,297.424 236.960 C 296.693 238.522,295.766 240.520,295.363 241.400 C 289.694 253.782,277.910 268.063,264.669 278.600 C 262.158 280.598,252.430 286.692,249.423 288.150 C 238.516 293.438,236.411 294.229,225.200 297.249 C 213.904 300.292,194.492 300.642,181.400 298.039 C 180.300 297.820,178.500 297.461,177.400 297.241 C 176.300 297.021,174.230 296.489,172.800 296.058 C 164.552 293.573,162.976 292.969,155.310 289.344 C 153.281 288.385,151.544 287.600,151.451 287.600 C 151.105 287.600,145.675 284.190,142.000 281.664 C 103.289 255.057,86.629 206.354,101.134 162.200 C 103.284 155.658,109.581 142.019,111.200 140.400 C 111.310 140.290,111.698 139.670,112.062 139.022 C 120.741 123.565,143.635 104.365,161.400 97.644 C 162.720 97.145,164.113 96.570,164.495 96.368 C 164.877 96.166,165.541 96.000,165.971 96.000 C 166.401 96.000,166.864 95.820,167.000 95.600 C 167.136 95.380,167.599 95.200,168.029 95.200 C 168.459 95.200,169.123 95.042,169.505 94.849 C 170.661 94.265,173.004 93.600,173.905 93.600 C 174.371 93.600,174.852 93.439,174.974 93.242 C 175.095 93.045,175.871 92.788,176.697 92.670 C 177.524 92.553,179.190 92.255,180.400 92.009 C 190.088 90.041,204.111 89.444,213.080 90.618 M192.313 101.643 C 184.753 102.224,164.976 107.349,163.020 109.234 C 162.811 109.435,162.316 109.600,161.920 109.600 C 161.524 109.600,161.200 109.780,161.200 110.000 C 161.200 110.220,160.876 110.400,160.480 110.400 C 160.084 110.400,159.589 110.565,159.380 110.767 C 159.171 110.969,157.920 111.711,156.600 112.415 C 145.761 118.201,133.346 128.824,126.466 138.200 C 125.336 139.740,124.214 141.234,123.972 141.519 C 120.925 145.119,112.000 163.172,112.000 165.737 C 112.000 166.076,111.820 166.464,111.600 166.600 C 111.380 166.736,111.200 167.366,111.200 168.000 C 111.200 168.634,111.040 169.252,110.844 169.373 C 110.649 169.494,110.388 170.179,110.266 170.896 C 110.144 171.613,109.846 173.100,109.604 174.200 C 106.927 186.353,106.926 202.697,109.602 214.600 C 109.849 215.700,110.149 217.276,110.268 218.103 C 110.387 218.929,110.645 219.705,110.842 219.826 C 111.039 219.948,111.200 220.541,111.200 221.144 C 111.200 221.747,111.343 222.411,111.518 222.620 C 111.693 222.829,112.070 223.720,112.355 224.600 C 117.795 241.380,129.479 257.906,143.600 268.792 C 144.590 269.555,145.490 270.274,145.600 270.390 C 145.964 270.772,148.321 272.369,149.671 273.147 C 150.402 273.569,152.530 274.839,154.400 275.971 C 156.270 277.102,158.970 278.571,160.400 279.234 C 161.830 279.898,163.313 280.612,163.695 280.820 C 164.077 281.029,164.574 281.200,164.799 281.200 C 165.024 281.200,165.972 281.545,166.904 281.967 C 168.401 282.643,171.216 283.624,175.000 284.786 C 185.087 287.886,195.838 289.012,208.000 288.244 C 216.204 287.726,223.366 286.143,233.000 282.718 C 235.420 281.857,237.760 280.990,238.200 280.790 C 238.640 280.590,239.990 279.981,241.200 279.436 C 251.814 274.655,266.093 263.515,273.225 254.453 C 273.981 253.492,274.787 252.502,275.014 252.253 C 278.595 248.339,284.392 238.349,287.578 230.600 C 288.302 228.840,289.053 227.087,289.247 226.705 C 289.441 226.323,289.600 225.659,289.600 225.229 C 289.600 224.799,289.759 224.349,289.954 224.229 C 290.149 224.108,290.404 223.513,290.521 222.905 C 290.638 222.297,290.941 221.080,291.194 220.200 C 295.230 206.146,295.712 188.016,292.401 174.800 C 292.208 174.030,291.838 172.500,291.579 171.400 C 291.052 169.160,290.438 166.999,289.990 165.800 C 289.826 165.360,289.458 164.190,289.174 163.200 C 288.889 162.210,288.538 161.220,288.395 161.000 C 288.251 160.780,287.895 159.970,287.602 159.200 C 281.778 143.869,268.675 127.716,253.800 117.530 C 249.818 114.803,248.317 113.907,242.400 110.721 C 241.410 110.188,239.520 109.340,238.200 108.837 C 236.880 108.334,235.440 107.771,235.000 107.587 C 223.130 102.621,207.641 100.463,192.313 101.643 M214.720 131.680 C 215.396 132.356,215.320 133.482,214.400 136.434 C 213.512 139.284,213.142 140.548,212.415 143.200 C 212.144 144.190,211.760 145.313,211.561 145.695 C 211.362 146.077,211.200 146.671,211.200 147.014 C 211.200 149.709,207.736 151.520,207.003 149.209 C 206.756 148.432,211.357 132.586,212.086 131.700 C 212.609 131.065,214.094 131.054,214.720 131.680 M196.214 134.225 C 197.664 134.718,198.180 134.748,198.638 134.368 C 199.562 133.602,203.335 133.774,204.865 134.652 C 210.045 137.626,208.300 144.457,200.864 150.317 C 198.173 152.437,197.394 152.424,194.677 150.211 C 186.557 143.596,185.594 135.376,192.775 133.971 C 193.559 133.817,194.239 133.671,194.286 133.646 C 194.333 133.621,195.201 133.881,196.214 134.225 M186.711 136.223 C 188.082 137.183,187.793 138.146,185.340 140.795 L 183.080 143.237 185.340 145.497 C 187.827 147.984,188.088 148.862,186.627 149.819 C 185.386 150.632,184.604 150.244,181.810 147.428 C 177.664 143.248,177.672 142.836,181.995 138.629 C 185.388 135.327,185.414 135.314,186.711 136.223 M220.567 138.500 C 225.226 143.118,225.207 142.760,221.024 147.135 C 218.328 149.954,217.153 150.617,215.974 149.986 C 214.618 149.260,215.030 147.732,217.200 145.437 C 218.300 144.274,219.200 143.153,219.200 142.946 C 219.200 142.739,218.300 141.683,217.200 140.600 C 215.089 138.521,214.778 137.529,215.862 136.331 C 216.914 135.169,217.463 135.423,220.567 138.500 M192.176 138.580 C 191.081 140.252,195.620 147.600,197.748 147.600 C 198.520 147.600,202.871 143.128,203.452 141.737 C 204.918 138.228,202.380 136.199,199.527 138.600 C 198.047 139.846,197.687 139.846,196.238 138.600 C 194.721 137.295,193.024 137.287,192.176 138.580 M182.200 170.639 C 183.520 170.762,185.320 171.187,186.200 171.584 C 187.080 171.980,189.150 172.623,190.800 173.014 C 194.439 173.874,195.796 174.517,196.616 175.769 C 197.392 176.952,198.800 180.755,198.800 181.666 C 198.800 182.144,199.459 182.535,201.045 182.996 C 203.964 183.844,206.199 185.350,207.544 187.374 C 208.573 188.923,208.909 189.583,209.946 192.100 C 210.196 192.705,210.570 193.605,210.779 194.100 C 210.987 194.595,211.716 196.710,212.400 198.800 C 215.487 208.237,214.963 208.077,221.530 201.599 C 226.380 196.816,228.246 195.085,239.315 185.105 C 247.099 178.087,247.302 178.000,255.835 178.000 C 265.897 178.000,269.341 182.690,262.312 186.821 C 261.150 187.503,259.030 188.770,257.600 189.635 C 256.170 190.500,254.730 191.328,254.400 191.475 C 250.673 193.135,241.388 200.878,237.224 205.800 C 236.479 206.680,234.414 208.995,232.635 210.944 C 228.590 215.375,228.591 215.388,232.800 217.530 C 236.858 219.594,238.320 220.697,244.145 226.090 C 246.586 228.351,249.753 231.280,251.182 232.600 C 256.372 237.393,259.600 241.576,259.600 243.508 C 259.600 244.909,257.697 247.200,256.534 247.200 C 256.124 247.200,254.804 247.560,253.600 248.000 C 246.908 250.446,245.362 249.572,230.113 234.719 C 223.440 228.220,222.251 227.462,221.764 229.402 C 221.489 230.499,222.503 237.386,223.422 240.662 C 225.616 248.485,221.306 251.507,211.842 248.781 C 209.005 247.964,208.707 247.855,205.921 246.632 C 204.324 245.931,203.236 244.613,202.428 242.400 C 202.147 241.630,201.143 239.380,200.196 237.400 C 199.250 235.420,198.353 233.080,198.203 232.200 C 198.053 231.320,197.767 229.790,197.567 228.800 C 197.166 226.815,196.514 223.283,195.979 220.200 C 194.829 213.578,193.277 206.049,192.955 205.528 C 192.823 205.314,190.750 210.328,188.347 216.670 C 181.428 234.933,180.927 236.494,179.963 242.800 C 179.298 247.147,179.106 248.011,178.756 248.227 C 178.560 248.348,178.400 248.857,178.400 249.357 C 178.400 249.857,178.278 250.389,178.129 250.538 C 177.979 250.687,177.574 251.606,177.229 252.580 C 176.449 254.776,173.098 258.400,171.847 258.400 C 154.974 258.400,151.618 252.217,155.789 228.817 C 157.036 221.826,157.255 222.619,151.893 214.736 C 149.597 211.361,147.178 207.610,146.519 206.400 C 145.859 205.190,144.845 203.390,144.266 202.400 C 142.498 199.377,138.159 190.350,137.194 187.687 C 135.280 182.404,138.397 181.142,146.103 184.078 C 150.248 185.658,152.255 187.457,158.374 195.075 C 161.167 198.554,163.695 201.400,163.992 201.400 C 164.496 201.400,165.152 199.808,168.196 191.200 C 168.779 189.550,169.417 187.840,169.614 187.400 C 169.810 186.960,171.060 183.375,172.391 179.434 C 175.379 170.589,175.881 169.817,178.400 170.200 C 179.170 170.318,180.880 170.515,182.200 170.639 " stroke="none" fill="#0c1c24" fill-rule="evenodd"></path><path id="path2" d="M187.899 90.805 C 184.873 91.206,182.173 91.641,181.899 91.771 C 181.372 92.020,182.464 91.917,190.200 90.985 C 196.303 90.250,206.971 90.242,212.400 90.969 C 218.938 91.844,221.289 92.059,219.600 91.626 C 212.990 89.934,197.501 89.533,187.899 90.805 M178.400 92.400 C 177.636 92.894,178.458 92.894,180.000 92.400 L 181.000 92.080 180.000 92.046 C 179.450 92.027,178.730 92.187,178.400 92.400 M222.400 92.400 C 223.942 92.894,224.764 92.894,224.000 92.400 C 223.670 92.187,222.950 92.027,222.400 92.046 L 221.400 92.080 222.400 92.400 M174.990 93.216 C 174.821 93.489,175.123 93.538,175.866 93.360 C 177.399 92.992,177.544 92.800,176.290 92.800 C 175.717 92.800,175.132 92.987,174.990 93.216 M225.400 93.200 C 226.596 93.714,227.595 93.714,226.800 93.200 C 226.470 92.987,225.840 92.822,225.400 92.834 L 224.600 92.856 225.400 93.200 M172.000 94.000 C 171.467 94.345,171.467 94.388,172.000 94.388 C 172.330 94.388,172.870 94.213,173.200 94.000 C 173.733 93.655,173.733 93.612,173.200 93.612 C 172.870 93.612,172.330 93.787,172.000 94.000 M228.600 94.000 C 229.796 94.514,230.795 94.514,230.000 94.000 C 229.670 93.787,229.040 93.622,228.600 93.634 L 227.800 93.656 228.600 94.000 M169.400 94.800 C 169.108 95.273,169.499 95.273,170.600 94.800 C 171.371 94.469,171.369 94.455,170.524 94.428 C 170.042 94.413,169.536 94.580,169.400 94.800 M231.200 94.568 C 231.200 94.840,235.234 96.099,235.441 95.892 C 235.546 95.788,234.735 95.409,233.640 95.051 C 231.539 94.364,231.200 94.297,231.200 94.568 M167.000 95.600 C 166.708 96.073,167.099 96.073,168.200 95.600 C 168.971 95.269,168.969 95.255,168.124 95.228 C 167.642 95.213,167.136 95.380,167.000 95.600 M164.580 96.318 C 164.371 96.493,163.480 96.872,162.600 97.159 C 159.223 98.262,148.952 103.486,149.360 103.893 C 149.467 104.000,150.059 103.738,150.677 103.312 C 152.367 102.144,160.122 98.482,163.352 97.326 C 164.919 96.765,166.275 96.237,166.367 96.153 C 166.700 95.847,164.949 96.009,164.580 96.318 M236.600 96.400 C 237.701 96.873,238.092 96.873,237.800 96.400 C 237.664 96.180,237.158 96.013,236.676 96.028 C 235.831 96.055,235.829 96.069,236.600 96.400 M239.600 97.513 C 240.370 97.877,243.744 99.473,247.098 101.061 C 262.351 108.280,276.548 120.386,286.549 134.700 C 289.467 138.876,289.913 139.026,287.144 134.900 C 281.881 127.058,273.255 118.014,264.795 111.468 C 260.670 108.277,251.007 102.000,250.218 102.000 C 250.062 102.000,240.807 97.675,239.905 97.181 C 239.523 96.971,238.983 96.812,238.705 96.826 C 238.427 96.840,238.830 97.149,239.600 97.513 M193.000 101.167 C 191.680 101.295,195.370 101.400,201.200 101.400 C 207.030 101.400,210.540 101.287,209.000 101.150 C 205.557 100.842,196.250 100.852,193.000 101.167 M186.000 102.016 C 185.373 102.226,185.970 102.266,187.600 102.123 C 189.030 101.997,190.275 101.828,190.367 101.747 C 190.695 101.458,186.980 101.686,186.000 102.016 M213.000 101.875 C 218.928 102.641,229.987 105.510,235.000 107.583 C 238.011 108.829,240.148 109.585,240.280 109.453 C 240.489 109.244,235.884 107.402,231.000 105.740 C 224.640 103.576,215.688 101.551,213.000 101.668 L 211.800 101.720 213.000 101.875 M181.200 102.868 C 180.430 103.080,178.450 103.618,176.800 104.063 C 172.832 105.133,165.526 107.659,165.751 107.884 C 165.849 107.982,168.330 107.239,171.265 106.232 C 174.199 105.225,178.490 103.966,180.800 103.434 C 183.110 102.902,184.460 102.469,183.800 102.474 C 183.140 102.478,181.970 102.655,181.200 102.868 M147.800 104.465 C 145.708 105.617,139.245 110.004,138.960 110.465 C 138.783 110.752,139.799 110.166,141.219 109.164 C 142.639 108.162,144.925 106.668,146.300 105.842 C 147.675 105.017,148.800 104.265,148.800 104.171 C 148.800 103.936,148.715 103.961,147.800 104.465 M163.000 108.778 C 162.120 109.195,161.593 109.550,161.829 109.568 C 162.064 109.585,162.964 109.247,163.829 108.816 C 165.846 107.810,165.117 107.776,163.000 108.778 M155.600 112.520 C 141.194 120.524,128.252 133.091,119.939 147.146 C 118.850 148.987,118.028 150.561,118.111 150.645 C 118.195 150.728,119.364 148.952,120.710 146.698 C 122.055 144.444,123.436 142.240,123.778 141.800 C 124.120 141.360,125.327 139.740,126.460 138.200 C 133.384 128.792,145.766 118.198,156.600 112.415 C 158.775 111.254,160.051 110.393,159.580 110.404 C 159.481 110.407,157.690 111.359,155.600 112.520 M242.400 110.564 C 242.400 110.654,243.975 111.575,245.900 112.612 C 259.271 119.811,272.307 132.112,280.409 145.176 C 282.129 147.950,287.200 157.620,287.200 158.127 C 287.200 158.606,288.471 161.262,288.626 161.107 C 288.725 161.009,287.999 159.083,287.013 156.829 C 278.944 138.380,264.169 122.220,246.449 112.465 C 242.689 110.395,242.400 110.260,242.400 110.564 M135.200 113.107 C 131.443 115.962,122.316 125.160,119.032 129.400 C 115.016 134.585,111.475 139.608,111.686 139.820 C 111.794 139.928,112.391 139.248,113.012 138.308 C 118.532 129.953,128.413 118.953,135.100 113.717 C 137.936 111.497,138.756 110.753,138.300 110.813 C 138.245 110.821,136.850 111.853,135.200 113.107 M211.992 131.810 C 211.714 132.145,211.597 132.531,211.734 132.667 C 211.870 132.803,212.095 132.619,212.233 132.257 C 212.372 131.896,212.913 131.600,213.435 131.600 C 214.743 131.600,215.016 132.977,214.232 135.617 C 213.886 136.783,213.675 137.809,213.764 137.898 C 213.980 138.113,215.200 133.882,215.200 132.918 C 215.200 131.316,213.026 130.564,211.992 131.810 M209.046 140.900 C 207.781 145.135,206.862 148.901,207.004 149.269 C 207.875 151.529,211.249 149.633,211.182 146.920 C 211.173 146.524,210.915 146.902,210.609 147.760 C 209.268 151.522,206.565 150.520,207.734 146.695 C 211.616 133.991,211.838 133.200,211.520 133.200 C 211.424 133.200,210.311 136.665,209.046 140.900 M192.775 133.971 C 188.558 134.796,186.681 139.454,188.895 143.601 C 190.720 147.021,196.000 152.000,197.801 152.000 C 199.291 152.000,204.844 147.285,206.045 145.000 C 206.276 144.560,205.546 145.223,204.423 146.473 C 202.030 149.137,198.814 151.600,197.729 151.600 C 196.043 151.600,190.174 145.742,188.964 142.851 C 186.791 137.656,191.069 132.734,196.063 134.685 C 197.346 135.187,197.750 135.181,199.353 134.637 C 204.864 132.766,209.086 137.846,206.608 143.366 C 206.371 143.892,206.402 144.046,206.705 143.859 C 208.919 142.490,207.674 136.257,204.865 134.650 C 203.335 133.774,199.560 133.603,198.638 134.368 C 198.180 134.748,197.664 134.718,196.214 134.225 C 195.201 133.881,194.333 133.621,194.286 133.646 C 194.239 133.671,193.559 133.817,192.775 133.971 M181.954 138.669 C 180.219 140.358,178.800 141.872,178.800 142.035 C 178.800 142.198,179.925 141.158,181.300 139.725 C 184.512 136.378,185.646 135.746,186.583 136.782 C 187.433 137.720,187.122 138.357,184.631 140.783 C 182.358 142.997,182.347 142.852,185.001 145.635 C 187.028 147.760,187.169 148.029,186.788 149.031 C 186.425 149.987,186.449 150.057,186.987 149.611 C 188.039 148.738,187.676 147.833,185.340 145.497 L 183.080 143.237 185.340 140.795 C 187.793 138.146,188.082 137.183,186.711 136.223 C 185.413 135.314,185.390 135.325,181.954 138.669 M215.862 136.331 C 214.778 137.529,215.089 138.521,217.200 140.600 C 218.300 141.683,219.200 142.739,219.200 142.946 C 219.200 143.153,218.300 144.274,217.200 145.437 C 215.030 147.732,214.618 149.260,215.974 149.986 C 217.153 150.617,217.492 150.480,216.489 149.777 C 215.102 148.806,215.418 147.808,217.852 145.470 L 220.104 143.306 217.852 140.856 C 215.493 138.290,215.092 137.100,216.357 136.423 C 217.263 135.938,218.337 136.687,221.486 140.000 C 224.275 142.934,224.225 143.371,220.683 147.006 C 219.079 148.653,217.868 150.000,217.994 150.000 C 218.245 150.000,223.150 144.999,223.952 143.926 C 224.675 142.957,224.045 141.947,220.567 138.500 C 217.463 135.423,216.914 135.169,215.862 136.331 M192.255 137.802 C 190.542 139.515,191.518 142.314,195.018 145.732 C 197.867 148.513,197.743 148.514,200.724 145.700 C 205.072 141.596,205.591 137.096,201.700 137.241 C 200.675 137.279,200.692 137.304,201.952 137.601 C 205.149 138.356,204.597 141.409,200.555 145.324 C 197.654 148.133,197.795 148.139,194.946 145.085 C 190.372 140.180,191.498 134.524,196.238 138.600 C 197.696 139.854,198.085 139.849,199.478 138.563 L 200.600 137.527 199.338 138.363 C 197.761 139.409,197.764 139.409,196.327 138.200 C 194.990 137.075,193.161 136.896,192.255 137.802 M212.284 142.004 C 211.697 144.064,211.298 145.831,211.398 145.932 C 211.591 146.124,211.617 146.054,212.399 143.200 C 212.671 142.210,213.070 140.914,213.286 140.320 C 213.503 139.727,213.607 139.020,213.517 138.750 C 213.427 138.481,212.872 139.945,212.284 142.004 M289.552 139.100 C 289.760 139.485,291.117 141.861,292.566 144.380 C 294.015 146.898,295.200 149.133,295.200 149.346 C 295.200 149.559,295.302 149.631,295.427 149.506 C 295.803 149.130,289.934 138.400,289.351 138.400 C 289.253 138.400,289.343 138.715,289.552 139.100 M110.504 141.474 C 109.801 142.988,110.210 143.128,110.981 141.637 C 111.333 140.957,111.481 140.401,111.310 140.403 C 111.140 140.405,110.777 140.887,110.504 141.474 M109.014 144.235 C 108.641 144.804,108.427 145.361,108.539 145.472 C 108.650 145.583,109.029 145.118,109.381 144.437 C 110.159 142.933,109.944 142.815,109.014 144.235 M178.975 144.168 C 179.748 145.401,184.251 150.000,184.684 150.000 C 184.824 150.000,183.518 148.515,181.781 146.700 C 180.044 144.885,178.537 143.310,178.433 143.200 C 178.328 143.090,178.572 143.526,178.975 144.168 M106.297 149.451 C 102.269 157.680,100.022 164.592,97.176 177.506 C 96.969 178.444,96.821 179.974,96.846 180.906 C 96.899 182.827,96.952 182.639,97.611 178.200 C 98.930 169.310,102.816 157.101,106.695 149.653 C 107.654 147.812,108.348 146.215,108.237 146.104 C 108.126 145.992,107.253 147.499,106.297 149.451 M295.992 150.978 C 296.206 151.542,296.729 152.767,297.155 153.702 C 298.887 157.504,301.342 164.490,302.602 169.200 C 303.337 171.950,303.952 173.882,303.969 173.493 C 303.998 172.823,303.027 168.886,301.797 164.690 C 301.158 162.508,298.787 156.413,297.363 153.288 C 296.833 152.127,296.400 151.012,296.400 150.812 C 296.400 150.611,296.221 150.336,296.001 150.201 C 295.737 150.038,295.734 150.301,295.992 150.978 M116.447 153.646 C 113.920 159.127,113.083 161.102,112.159 163.770 C 111.063 166.937,111.064 166.931,111.600 166.600 C 111.820 166.464,112.000 166.076,112.000 165.737 C 112.000 164.971,114.630 158.410,116.539 154.416 C 117.323 152.774,117.888 151.355,117.795 151.261 C 117.701 151.168,117.095 152.241,116.447 153.646 M289.628 164.676 C 289.613 165.158,289.780 165.664,290.000 165.800 C 290.473 166.092,290.473 165.701,290.000 164.600 C 289.669 163.829,289.655 163.831,289.628 164.676 M290.554 167.200 C 290.649 167.750,290.999 169.280,291.334 170.600 C 291.668 171.920,292.054 173.516,292.190 174.147 C 292.327 174.778,292.530 175.203,292.641 175.092 C 292.872 174.861,291.391 168.499,290.784 167.115 C 290.387 166.209,290.385 166.210,290.554 167.200 M110.846 167.867 C 110.821 168.124,110.684 168.664,110.541 169.067 C 110.340 169.636,110.394 169.697,110.779 169.342 C 111.052 169.091,111.189 168.551,111.084 168.142 C 110.979 167.734,110.872 167.610,110.846 167.867 M176.400 170.494 C 175.157 171.543,174.750 172.450,172.391 179.434 C 171.060 183.375,169.810 186.960,169.614 187.400 C 169.417 187.840,168.779 189.550,168.196 191.200 C 165.152 199.808,164.496 201.400,163.992 201.400 C 163.695 201.400,161.167 198.554,158.374 195.075 C 152.255 187.457,150.248 185.658,146.103 184.078 C 139.013 181.376,135.603 182.324,136.816 186.658 C 137.088 187.629,137.393 188.340,137.495 188.238 C 137.597 188.137,137.475 187.434,137.225 186.677 C 135.865 182.556,140.341 181.774,147.049 184.959 C 150.819 186.749,152.477 188.328,158.442 195.804 C 163.381 201.994,163.911 202.471,164.747 201.464 C 165.113 201.023,167.439 194.913,168.807 190.800 C 168.990 190.250,169.882 187.730,170.791 185.200 C 171.699 182.670,173.012 178.822,173.708 176.649 C 175.207 171.969,176.571 170.162,178.303 170.560 C 178.907 170.698,180.480 170.914,181.800 171.038 C 183.120 171.162,185.137 171.627,186.282 172.071 C 187.427 172.515,188.597 172.785,188.882 172.671 C 189.211 172.539,189.143 172.452,188.696 172.432 C 188.308 172.414,187.228 172.054,186.296 171.632 C 185.363 171.209,183.520 170.762,182.200 170.639 C 180.880 170.515,179.170 170.318,178.400 170.200 C 177.556 170.072,176.762 170.188,176.400 170.494 M109.829 171.429 C 109.681 172.015,109.651 172.584,109.761 172.694 C 109.871 172.804,110.081 172.415,110.229 171.829 C 110.376 171.242,110.406 170.673,110.296 170.563 C 110.186 170.453,109.976 170.842,109.829 171.429 M190.200 173.153 C 190.640 173.336,192.076 173.826,193.390 174.243 C 195.648 174.958,195.842 175.122,196.884 177.200 C 197.490 178.410,197.990 179.168,197.993 178.884 C 198.019 176.876,195.608 174.232,193.200 173.630 C 190.716 173.009,189.317 172.787,190.200 173.153 M109.249 174.000 C 109.216 174.330,109.089 175.050,108.967 175.600 C 108.775 176.464,108.807 176.503,109.199 175.888 C 109.448 175.497,109.575 174.777,109.481 174.288 C 109.386 173.800,109.282 173.670,109.249 174.000 M304.259 176.600 C 304.393 177.700,304.569 178.675,304.651 178.767 C 304.964 179.117,304.726 176.161,304.380 175.400 C 304.135 174.861,304.095 175.254,304.259 176.600 M292.887 176.600 C 292.883 177.260,293.024 178.250,293.200 178.800 L 293.520 179.800 293.513 178.800 C 293.509 178.250,293.368 177.260,293.200 176.600 L 292.895 175.400 292.887 176.600 M108.460 177.650 C 108.427 178.228,108.311 179.308,108.201 180.050 L 108.003 181.400 108.424 180.057 C 108.655 179.319,108.772 178.239,108.682 177.657 L 108.520 176.600 108.460 177.650 M249.200 178.400 C 248.482 178.630,248.932 178.720,250.800 178.720 C 252.230 178.720,253.850 178.576,254.400 178.400 C 255.118 178.170,254.668 178.080,252.800 178.080 C 251.370 178.080,249.750 178.224,249.200 178.400 M260.200 178.400 C 261.396 178.914,262.395 178.914,261.600 178.400 C 261.270 178.187,260.640 178.022,260.200 178.034 L 259.400 178.056 260.200 178.400 M198.160 180.400 C 198.286 180.950,198.392 181.694,198.395 182.053 C 198.398 182.496,199.008 182.857,200.300 183.179 C 204.072 184.120,206.353 185.936,208.379 189.611 C 209.043 190.815,209.589 191.580,209.593 191.312 C 209.600 190.826,208.574 188.848,207.332 186.952 C 206.356 185.463,203.643 183.751,201.076 183.005 C 199.211 182.463,198.799 182.186,198.794 181.472 C 198.791 180.992,198.595 180.330,198.359 180.000 C 198.023 179.529,197.980 179.616,198.160 180.400 M239.759 184.709 C 236.657 187.509,232.427 191.328,230.359 193.195 C 228.292 195.063,224.319 198.843,221.530 201.595 C 215.573 207.476,215.344 207.546,214.213 203.843 C 214.085 203.426,213.888 203.179,213.774 203.293 C 213.411 203.656,214.837 206.729,215.483 206.977 C 216.301 207.291,218.253 205.770,220.661 202.942 C 221.728 201.690,224.341 199.121,226.468 197.233 C 231.672 192.615,240.008 185.061,243.200 182.071 C 247.832 177.732,245.558 179.475,239.759 184.709 M264.812 180.866 C 265.954 182.890,265.241 184.631,262.648 186.151 C 261.632 186.746,260.800 187.334,260.800 187.457 C 260.800 188.044,264.307 185.541,265.100 184.389 C 266.249 182.721,266.230 182.079,264.990 180.600 L 263.984 179.400 264.812 180.866 M293.752 182.600 C 293.897 184.140,294.212 187.380,294.452 189.800 C 295.294 198.284,294.007 210.312,291.199 220.200 C 290.378 223.089,290.397 223.850,291.228 221.400 C 293.327 215.218,295.200 203.315,295.200 196.164 C 295.200 192.002,294.136 180.384,293.720 180.009 C 293.593 179.894,293.607 181.060,293.752 182.600 M305.057 182.200 C 305.191 183.520,305.368 184.675,305.450 184.767 C 305.769 185.121,305.524 181.356,305.179 180.600 C 304.938 180.072,304.896 180.616,305.057 182.200 M107.414 185.522 C 107.248 187.570,107.204 189.338,107.317 189.451 C 107.591 189.724,108.142 183.019,107.903 182.334 C 107.800 182.040,107.580 183.475,107.414 185.522 M96.257 184.300 C 95.928 186.286,95.985 201.306,96.330 203.600 C 96.478 204.590,96.600 200.315,96.600 194.100 C 96.600 187.885,96.579 182.800,96.552 182.800 C 96.526 182.800,96.393 183.475,96.257 184.300 M259.600 188.017 C 259.270 188.221,257.862 189.037,256.470 189.830 C 255.079 190.624,254.017 191.350,254.110 191.444 C 254.285 191.619,258.378 189.315,259.800 188.240 C 260.679 187.576,260.550 187.431,259.600 188.017 M305.729 195.200 C 305.727 199.931,305.837 201.951,306.033 200.800 C 306.423 198.519,306.422 192.415,306.031 189.800 C 305.838 188.505,305.732 190.410,305.729 195.200 M137.994 189.783 C 138.792 191.884,143.673 201.598,144.046 201.828 C 144.380 202.035,138.205 189.272,137.751 188.817 C 137.640 188.707,137.750 189.142,137.994 189.783 M107.250 196.033 C 107.277 198.545,107.436 201.860,107.603 203.400 C 107.782 205.051,107.823 203.244,107.702 199.000 C 107.472 190.948,107.173 188.987,107.250 196.033 M249.908 193.904 C 245.699 196.675,241.389 200.516,237.539 204.928 C 235.969 206.728,233.766 209.193,232.642 210.406 C 231.519 211.620,230.261 213.060,229.846 213.606 C 228.805 214.980,233.569 209.977,236.328 206.800 C 240.381 202.133,245.729 197.190,249.400 194.718 C 251.380 193.384,253.171 192.137,253.380 191.947 C 254.270 191.135,253.182 191.748,249.908 193.904 M210.534 194.515 C 210.673 194.909,211.362 196.932,212.065 199.010 C 212.768 201.089,213.413 202.720,213.498 202.636 C 213.719 202.414,211.121 194.677,210.665 194.200 C 210.418 193.942,210.372 194.054,210.534 194.515 M144.409 202.700 C 144.414 202.865,144.785 203.450,145.233 204.000 L 146.048 205.000 145.414 203.700 C 144.811 202.465,144.389 202.045,144.409 202.700 M191.979 205.900 C 191.365 207.583,190.094 210.955,189.148 213.414 C 188.679 214.632,188.383 215.717,188.490 215.824 C 188.598 215.931,189.597 213.540,190.711 210.509 C 192.533 205.555,192.778 205.101,193.143 206.000 L 193.549 207.000 193.575 205.900 C 193.591 205.170,193.395 204.800,192.990 204.800 C 192.655 204.800,192.200 205.295,191.979 205.900 M305.070 207.357 C 304.911 208.653,304.861 209.794,304.960 209.893 C 305.226 210.159,305.703 206.618,305.519 205.747 C 305.432 205.336,305.230 206.060,305.070 207.357 M96.843 207.269 C 96.798 209.231,97.014 210.495,98.681 218.000 C 99.701 222.598,102.171 230.559,103.395 233.200 C 104.258 235.062,103.916 233.661,102.662 230.200 C 100.400 223.957,98.396 215.911,97.432 209.200 C 97.014 206.289,96.876 205.838,96.843 207.269 M108.269 209.000 C 108.396 210.320,108.568 211.475,108.650 211.567 C 108.941 211.890,108.716 208.586,108.379 207.600 C 108.158 206.952,108.120 207.445,108.269 209.000 M147.208 207.600 C 147.487 208.150,149.714 211.546,152.157 215.146 L 156.600 221.692 156.546 224.146 L 156.492 226.600 156.875 224.871 C 157.406 222.477,157.141 221.896,151.987 214.147 C 147.542 207.465,146.229 205.666,147.208 207.600 M193.680 208.000 C 193.680 208.550,193.824 209.450,194.000 210.000 L 194.320 211.000 194.320 210.000 C 194.320 209.450,194.176 208.550,194.000 208.000 L 193.680 207.000 193.680 208.000 M304.464 211.450 C 304.429 211.918,304.305 212.907,304.189 213.650 C 303.996 214.886,304.015 214.917,304.408 214.014 C 304.645 213.472,304.768 212.482,304.683 211.814 C 304.591 211.097,304.502 210.948,304.464 211.450 M194.456 212.000 C 194.456 212.550,194.611 213.360,194.800 213.800 C 195.113 214.529,195.144 214.512,195.144 213.600 C 195.144 213.050,194.989 212.240,194.800 211.800 C 194.487 211.071,194.456 211.088,194.456 212.000 M109.038 213.800 C 109.370 215.784,109.602 216.104,109.594 214.567 C 109.591 213.925,109.404 213.130,109.179 212.800 C 108.886 212.370,108.846 212.654,109.038 213.800 M228.818 215.000 C 228.806 215.824,229.502 216.331,233.400 218.332 C 236.449 219.897,238.280 221.203,241.100 223.825 C 243.135 225.717,244.800 227.145,244.800 226.999 C 244.800 226.655,240.170 222.342,237.910 220.581 C 236.948 219.832,234.700 218.505,232.913 217.631 C 231.126 216.758,229.475 215.719,229.244 215.322 C 229.013 214.925,228.822 214.780,228.818 215.000 M195.246 216.400 C 195.227 216.950,195.387 217.670,195.600 218.000 C 196.094 218.764,196.094 217.942,195.600 216.400 L 195.280 215.400 195.246 216.400 M303.046 218.605 C 301.805 223.924,299.023 232.410,297.049 236.900 C 296.686 237.725,296.476 238.400,296.583 238.400 C 297.613 238.400,304.294 218.021,303.913 216.042 C 303.846 215.695,303.456 216.848,303.046 218.605 M109.646 216.400 C 109.665 216.730,109.824 217.450,110.000 218.000 L 110.320 219.000 110.354 218.000 C 110.373 217.450,110.213 216.730,110.000 216.400 C 109.655 215.867,109.616 215.867,109.646 216.400 M186.240 221.240 C 185.655 222.818,185.248 224.182,185.336 224.270 C 185.424 224.358,185.975 223.138,186.560 221.560 C 187.145 219.982,187.552 218.618,187.464 218.530 C 187.376 218.442,186.825 219.662,186.240 221.240 M110.428 219.876 C 110.518 220.915,111.144 221.796,111.172 220.924 C 111.187 220.442,111.020 219.936,110.800 219.800 C 110.580 219.664,110.413 219.698,110.428 219.876 M196.068 220.800 C 196.062 221.350,196.211 222.160,196.400 222.600 L 196.744 223.400 196.732 222.600 C 196.726 222.160,196.576 221.350,196.400 220.800 L 196.080 219.800 196.068 220.800 M289.867 224.267 C 289.720 224.413,289.611 224.908,289.625 225.367 C 289.649 226.133,289.682 226.123,290.034 225.242 C 290.426 224.263,290.344 223.789,289.867 224.267 M112.027 224.740 C 111.991 225.455,114.958 232.788,116.236 235.141 C 117.502 237.474,117.341 236.991,114.793 230.800 C 111.974 223.953,112.057 224.135,112.027 224.740 M196.868 225.200 C 196.862 225.750,197.011 226.560,197.200 227.000 L 197.544 227.800 197.532 227.000 C 197.526 226.560,197.376 225.750,197.200 225.200 L 196.880 224.200 196.868 225.200 M183.694 227.893 C 181.985 232.230,180.798 235.846,180.809 236.687 C 180.814 237.079,181.517 235.330,182.372 232.800 C 183.227 230.270,184.223 227.506,184.586 226.657 C 184.950 225.808,185.173 225.040,185.083 224.949 C 184.993 224.859,184.368 226.184,183.694 227.893 M288.977 227.043 C 288.844 227.459,288.563 228.228,288.352 228.752 C 288.142 229.275,288.044 229.778,288.135 229.868 C 288.226 229.959,288.600 229.283,288.967 228.367 C 289.333 227.450,289.540 226.607,289.426 226.493 C 289.312 226.379,289.110 226.626,288.977 227.043 M155.441 230.819 C 153.366 242.317,153.732 250.437,156.476 253.766 C 157.623 255.158,159.877 256.656,160.255 256.278 C 160.355 256.179,159.753 255.744,158.918 255.312 C 154.506 253.032,153.285 244.331,155.659 232.093 C 156.098 229.835,156.398 227.683,156.326 227.312 C 156.255 226.941,155.857 228.519,155.441 230.819 M250.829 232.825 C 256.733 238.675,259.200 241.802,259.200 243.438 C 259.200 244.591,257.438 246.697,256.286 246.919 C 255.420 247.087,255.421 247.092,256.340 247.146 C 257.660 247.222,259.600 245.058,259.600 243.508 C 259.600 241.234,255.043 235.897,247.200 228.987 C 245.990 227.921,247.623 229.648,250.829 232.825 M221.614 228.774 C 221.129 229.679,221.133 232.171,221.621 233.600 C 221.847 234.261,221.897 233.719,221.767 232.000 C 221.566 229.340,221.747 228.692,222.800 228.292 C 223.285 228.107,223.268 228.057,222.714 228.032 C 222.337 228.014,221.842 228.348,221.614 228.774 M197.628 229.233 C 197.644 229.765,197.819 230.560,198.019 231.000 C 198.271 231.558,198.307 231.315,198.138 230.200 C 197.855 228.343,197.587 227.836,197.628 229.233 M230.069 234.676 C 242.931 247.204,245.469 249.180,248.062 248.687 C 248.899 248.528,248.880 248.503,247.880 248.454 C 245.222 248.325,242.671 246.356,232.600 236.658 C 228.200 232.421,224.361 228.811,224.069 228.635 C 223.777 228.459,226.477 231.177,230.069 234.676 M285.809 234.641 C 284.736 236.974,283.257 239.881,282.522 241.101 C 281.787 242.321,281.258 243.391,281.345 243.478 C 281.665 243.799,287.091 233.525,287.777 231.300 C 288.355 229.421,287.694 230.545,285.809 234.641 M198.427 232.808 C 198.412 233.362,199.130 235.252,200.022 237.008 C 200.914 238.763,201.926 241.010,202.270 242.000 C 203.104 244.404,204.157 245.820,205.671 246.576 C 207.732 247.604,207.946 247.262,205.940 246.145 C 204.561 245.377,203.903 244.683,203.390 243.455 C 203.011 242.545,201.978 240.298,201.097 238.462 C 200.215 236.627,199.259 234.377,198.973 233.462 C 198.573 232.183,198.447 232.032,198.427 232.808 M104.021 234.940 C 103.989 235.462,108.783 245.351,108.975 245.158 C 109.068 245.065,107.997 242.651,106.594 239.794 C 105.191 236.937,104.033 234.753,104.021 234.940 M222.075 235.800 C 222.065 236.460,222.211 237.360,222.400 237.800 L 222.744 238.600 222.725 237.800 C 222.714 237.360,222.568 236.460,222.400 235.800 L 222.095 234.600 222.075 235.800 M117.200 237.375 C 117.200 238.424,124.740 250.106,127.025 252.600 C 128.781 254.515,128.414 253.900,125.715 250.400 C 123.439 247.450,120.202 242.361,118.640 239.279 C 117.722 237.468,117.200 236.778,117.200 237.375 M180.222 239.022 C 180.072 239.825,180.038 240.572,180.148 240.682 C 180.258 240.792,180.472 240.225,180.622 239.422 C 180.773 238.619,180.806 237.873,180.696 237.763 C 180.586 237.653,180.373 238.219,180.222 239.022 M295.568 240.087 C 289.389 255.128,272.403 273.912,255.872 283.986 C 252.858 285.822,250.466 287.399,250.556 287.490 C 250.839 287.773,262.658 280.306,264.964 278.388 C 275.805 269.369,282.037 262.726,287.935 253.906 C 292.429 247.185,296.756 239.423,296.277 238.943 C 296.184 238.850,295.865 239.365,295.568 240.087 M223.025 240.400 C 224.082 246.767,223.114 248.715,218.542 249.413 C 217.177 249.621,211.539 248.468,208.600 247.379 C 208.074 247.184,207.937 247.217,208.200 247.475 C 208.706 247.973,214.186 249.531,216.584 249.860 C 222.113 250.618,225.259 246.429,223.390 240.800 C 222.884 239.278,222.828 239.216,223.025 240.400 M179.659 242.800 C 179.620 243.350,179.489 244.250,179.367 244.800 C 179.176 245.662,179.208 245.702,179.597 245.091 C 179.846 244.702,179.977 243.802,179.889 243.091 C 179.764 242.087,179.713 242.022,179.659 242.800 M278.464 247.571 C 277.078 249.535,275.641 251.499,275.272 251.935 C 274.902 252.371,273.981 253.509,273.225 254.464 C 265.374 264.377,248.854 276.836,238.643 280.544 C 238.226 280.695,237.996 280.929,238.130 281.064 C 238.827 281.761,253.304 273.379,258.706 269.150 C 265.983 263.455,277.740 250.518,280.748 244.896 C 281.640 243.230,280.995 243.986,278.464 247.571 M178.854 246.467 C 178.825 246.834,178.684 247.464,178.541 247.867 C 178.341 248.433,178.395 248.496,178.775 248.146 C 179.046 247.897,179.187 247.267,179.088 246.746 C 178.990 246.226,178.884 246.100,178.854 246.467 M110.000 246.916 C 110.000 247.272,112.157 250.882,114.084 253.751 C 117.017 258.118,123.050 265.309,127.046 269.200 L 130.947 273.000 126.295 268.079 C 121.111 262.595,115.436 255.359,112.401 250.362 C 110.347 246.981,110.000 246.483,110.000 246.916 M252.000 248.017 C 250.790 248.421,250.126 248.762,250.525 248.776 C 251.295 248.802,255.200 247.614,255.200 247.354 C 255.200 247.072,254.222 247.275,252.000 248.017 M178.046 249.067 C 178.021 249.324,177.884 249.864,177.741 250.267 C 177.540 250.836,177.594 250.897,177.979 250.542 C 178.252 250.291,178.389 249.751,178.284 249.342 C 178.179 248.934,178.072 248.810,178.046 249.067 M174.600 255.892 L 172.600 258.068 170.400 257.811 C 165.430 257.231,162.545 256.832,161.600 256.595 C 160.768 256.387,160.715 256.419,161.285 256.784 C 162.211 257.377,171.422 258.544,172.522 258.207 C 173.371 257.947,177.088 254.130,176.761 253.853 C 176.673 253.777,175.700 254.695,174.600 255.892 M129.614 255.900 C 133.623 260.286,138.542 265.143,141.200 267.340 C 145.302 270.730,145.601 270.948,145.591 270.549 C 145.587 270.357,144.912 269.725,144.091 269.144 C 140.626 266.690,129.200 255.628,129.200 254.726 C 129.200 254.547,128.985 254.400,128.722 254.400 C 128.458 254.400,128.860 255.075,129.614 255.900 M146.269 271.235 C 146.527 271.546,147.337 272.130,148.069 272.533 L 149.400 273.267 148.400 272.422 C 146.980 271.222,145.639 270.475,146.269 271.235 M131.215 273.071 C 131.270 274.302,147.652 285.926,152.119 287.904 C 154.391 288.911,153.708 288.346,150.400 286.483 C 145.231 283.572,138.596 279.021,134.700 275.714 C 132.775 274.080,131.207 272.891,131.215 273.071 M149.600 273.360 C 149.600 274.091,163.390 281.543,163.865 281.068 C 164.055 280.878,161.473 279.600,160.899 279.600 C 160.574 279.600,153.566 275.573,151.728 274.331 C 150.131 273.251,149.600 273.008,149.600 273.360 M165.958 282.037 C 166.925 282.466,167.800 282.734,167.902 282.632 C 168.124 282.410,165.294 281.188,164.651 281.228 C 164.403 281.244,164.991 281.608,165.958 282.037 M232.759 282.787 C 230.647 283.610,228.487 284.390,227.959 284.520 C 227.432 284.649,224.840 285.287,222.200 285.936 C 219.560 286.586,216.590 287.253,215.600 287.418 C 214.610 287.583,214.003 287.789,214.252 287.876 C 215.841 288.433,233.823 283.487,237.200 281.566 C 238.634 280.750,236.433 281.355,232.759 282.787 M170.800 283.736 C 170.800 284.443,187.276 288.458,187.844 287.889 C 187.959 287.775,186.811 287.472,185.294 287.216 C 182.399 286.728,176.439 285.221,171.700 283.780 C 171.205 283.630,170.800 283.610,170.800 283.736 M191.200 288.417 C 192.410 288.584,194.750 288.712,196.400 288.702 L 199.400 288.682 197.000 288.385 C 195.680 288.221,193.340 288.093,191.800 288.100 L 189.000 288.113 191.200 288.417 M204.800 288.400 L 202.600 288.670 205.400 288.691 C 206.940 288.703,209.280 288.579,210.600 288.415 L 213.000 288.118 210.000 288.124 C 208.350 288.128,206.010 288.252,204.800 288.400 M155.600 289.371 C 155.600 289.637,160.102 291.632,160.287 291.447 C 160.377 291.356,159.428 290.814,158.177 290.241 C 155.815 289.159,155.600 289.087,155.600 289.371 M241.000 291.635 C 238.888 292.695,233.423 294.621,229.637 295.638 C 227.967 296.087,225.700 296.697,224.600 296.993 C 223.500 297.290,222.060 297.611,221.400 297.706 C 220.235 297.875,220.232 297.882,221.280 297.940 C 221.875 297.973,223.315 297.742,224.480 297.427 C 225.646 297.112,227.950 296.489,229.600 296.042 C 235.012 294.576,243.200 291.529,243.200 290.981 C 243.200 290.650,242.616 290.824,241.000 291.635 M161.600 292.160 C 163.402 293.270,176.011 297.215,177.643 297.179 C 178.169 297.168,176.890 296.719,174.800 296.182 C 171.616 295.363,168.782 294.442,161.400 291.828 C 160.876 291.642,160.945 291.757,161.600 292.160 M179.200 297.588 C 179.530 297.808,180.415 297.991,181.167 297.994 C 182.960 298.002,182.641 297.775,180.400 297.450 C 179.142 297.267,178.781 297.309,179.200 297.588 M182.921 298.252 C 183.324 298.658,187.181 299.153,191.600 299.365 C 193.470 299.454,194.370 299.457,193.600 299.372 C 191.005 299.083,185.411 298.371,184.000 298.149 C 183.230 298.028,182.744 298.074,182.921 298.252 M216.800 298.400 L 215.000 298.680 216.800 298.712 C 217.790 298.729,218.960 298.589,219.400 298.400 L 220.200 298.056 219.400 298.088 C 218.960 298.106,217.790 298.246,216.800 298.400 M209.400 299.200 L 206.200 299.453 209.600 299.487 C 211.470 299.505,213.450 299.376,214.000 299.200 C 215.237 298.804,214.405 298.804,209.400 299.200 M198.100 299.896 C 199.365 299.975,201.435 299.975,202.700 299.896 C 203.965 299.816,202.930 299.751,200.400 299.751 C 197.870 299.751,196.835 299.816,198.100 299.896 " stroke="none" fill="#5d6870" fill-rule="evenodd"></path><path id="path3" d="M198.719 90.698 C 200.544 90.772,203.424 90.772,205.119 90.697 C 206.814 90.622,205.320 90.561,201.800 90.562 C 198.280 90.562,196.894 90.624,198.719 90.698 M189.600 91.200 C 187.411 91.468,187.409 91.470,189.200 91.500 C 190.190 91.516,191.900 91.390,193.000 91.218 C 195.672 90.802,192.965 90.788,189.600 91.200 M210.000 91.202 C 211.832 91.547,215.470 91.722,215.167 91.451 C 215.075 91.370,213.470 91.204,211.600 91.083 C 209.130 90.924,208.692 90.957,210.000 91.202 M216.800 91.993 C 217.788 92.316,221.089 92.535,220.767 92.256 C 220.675 92.176,219.520 92.011,218.200 91.888 C 216.709 91.749,216.179 91.789,216.800 91.993 M182.500 92.276 C 182.885 92.376,183.515 92.376,183.900 92.276 C 184.285 92.175,183.970 92.093,183.200 92.093 C 182.430 92.093,182.115 92.175,182.500 92.276 M178.800 92.800 C 177.433 93.088,177.428 93.095,178.600 93.119 C 179.260 93.133,180.160 92.989,180.600 92.800 C 181.562 92.387,180.764 92.387,178.800 92.800 M222.000 92.800 C 222.550 92.976,223.360 93.120,223.800 93.120 C 224.433 93.120,224.392 93.054,223.600 92.800 C 223.050 92.624,222.240 92.480,221.800 92.480 C 221.167 92.480,221.208 92.546,222.000 92.800 M175.200 93.600 C 174.396 93.857,174.357 93.923,175.000 93.932 C 175.440 93.938,176.160 93.789,176.600 93.600 C 177.619 93.162,176.568 93.162,175.200 93.600 M225.400 93.600 C 225.840 93.789,226.560 93.938,227.000 93.932 C 227.643 93.923,227.604 93.857,226.800 93.600 C 225.432 93.162,224.381 93.162,225.400 93.600 M172.200 94.400 C 171.429 94.731,171.431 94.745,172.276 94.772 C 172.758 94.787,173.264 94.620,173.400 94.400 C 173.692 93.927,173.301 93.927,172.200 94.400 M228.400 94.382 C 228.730 94.605,229.345 94.791,229.767 94.794 C 230.790 94.802,230.471 94.573,229.000 94.244 C 228.124 94.048,227.962 94.085,228.400 94.382 M164.200 97.166 C 158.317 99.404,157.868 99.601,158.107 99.841 C 158.227 99.961,158.873 99.776,159.543 99.430 C 160.212 99.083,162.514 98.165,164.658 97.389 C 168.332 96.059,169.413 95.571,168.567 95.622 C 168.365 95.635,166.400 96.330,164.200 97.166 M237.000 97.149 C 239.200 97.988,241.576 98.972,242.280 99.337 C 243.845 100.147,244.589 100.196,243.200 99.397 C 241.773 98.576,234.163 95.598,233.530 95.612 C 233.239 95.619,234.800 96.311,237.000 97.149 M154.300 101.425 C 152.815 102.187,151.600 102.901,151.600 103.011 C 151.600 103.189,157.160 100.527,157.567 100.153 C 158.114 99.651,156.637 100.225,154.300 101.425 M246.000 101.000 C 246.990 101.530,247.980 101.964,248.200 101.964 C 248.420 101.964,247.790 101.530,246.800 101.000 C 245.810 100.470,244.820 100.036,244.600 100.036 C 244.380 100.036,245.010 100.470,246.000 101.000 M197.300 100.698 C 199.445 100.770,202.955 100.770,205.100 100.698 C 207.245 100.626,205.490 100.567,201.200 100.567 C 196.910 100.567,195.155 100.626,197.300 100.698 M188.400 101.200 C 186.763 101.454,186.727 101.483,188.000 101.510 C 188.770 101.527,190.210 101.397,191.200 101.220 C 193.597 100.794,191.128 100.776,188.400 101.200 M211.200 101.220 C 212.190 101.397,213.630 101.530,214.400 101.517 C 215.545 101.497,215.435 101.436,213.800 101.182 C 211.053 100.754,208.769 100.788,211.200 101.220 M216.800 101.980 C 217.799 102.320,220.282 102.532,219.967 102.251 C 219.875 102.169,218.900 101.999,217.800 101.872 C 216.451 101.716,216.126 101.751,216.800 101.980 M221.000 102.800 C 221.440 102.989,222.160 103.138,222.600 103.132 C 223.243 103.123,223.204 103.057,222.400 102.800 C 221.032 102.362,219.981 102.362,221.000 102.800 M249.600 102.593 C 249.600 102.700,250.540 103.263,251.690 103.845 C 252.839 104.428,255.899 106.324,258.490 108.060 C 261.080 109.796,263.200 111.136,263.200 111.038 C 263.200 110.709,255.830 105.732,252.864 104.057 C 249.887 102.377,249.600 102.248,249.600 102.593 M146.316 105.930 C 143.959 107.403,141.799 108.847,141.516 109.138 C 141.232 109.429,142.530 108.724,144.400 107.570 C 146.270 106.416,148.565 105.035,149.500 104.502 C 151.115 103.580,151.566 103.169,150.900 103.225 C 150.735 103.239,148.672 104.456,146.316 105.930 M176.600 103.600 C 176.096 103.817,176.022 103.944,176.400 103.944 C 176.730 103.944,177.360 103.789,177.800 103.600 C 178.304 103.383,178.378 103.256,178.000 103.256 C 177.670 103.256,177.040 103.411,176.600 103.600 M227.400 104.400 C 227.840 104.589,228.470 104.744,228.800 104.744 C 229.178 104.744,229.104 104.617,228.600 104.400 C 228.160 104.211,227.530 104.056,227.200 104.056 C 226.822 104.056,226.896 104.183,227.400 104.400 M168.675 106.073 C 166.736 106.739,165.233 107.366,165.334 107.467 C 165.513 107.647,172.392 105.341,172.752 104.981 C 173.110 104.624,172.144 104.882,168.675 106.073 M230.600 105.355 C 231.260 105.655,232.250 106.011,232.800 106.146 C 233.603 106.343,233.564 106.284,232.600 105.845 C 231.940 105.545,230.950 105.189,230.400 105.054 C 229.597 104.857,229.636 104.916,230.600 105.355 M236.167 107.417 C 237.469 107.957,238.598 108.335,238.676 108.257 C 238.863 108.071,234.828 106.395,234.247 106.417 C 234.001 106.426,234.865 106.876,236.167 107.417 M162.800 108.400 C 162.030 108.822,161.580 109.166,161.800 109.166 C 162.020 109.166,162.830 108.822,163.600 108.400 C 164.370 107.978,164.820 107.634,164.600 107.634 C 164.380 107.634,163.570 107.978,162.800 108.400 M136.583 112.663 C 128.175 119.059,116.640 132.123,111.209 141.400 C 109.778 143.843,110.833 142.564,113.023 139.200 C 120.096 128.335,135.561 112.039,140.444 110.307 C 140.750 110.198,140.902 110.002,140.783 109.871 C 140.664 109.740,138.774 110.996,136.583 112.663 M155.911 111.760 C 153.587 113.141,153.582 113.406,155.900 112.241 C 157.055 111.661,158.000 111.100,158.000 110.993 C 158.000 110.649,157.429 110.858,155.911 111.760 M264.600 112.229 C 265.260 112.877,267.240 114.599,269.000 116.056 C 270.760 117.513,273.771 120.346,275.691 122.353 C 277.611 124.359,279.317 126.000,279.483 126.000 C 280.014 126.000,272.324 118.435,268.600 115.294 C 264.196 111.579,263.022 110.679,264.600 112.229 M247.754 112.924 C 248.168 113.186,249.833 114.251,251.454 115.292 C 253.074 116.332,254.400 117.093,254.400 116.983 C 254.400 116.694,247.743 112.395,247.339 112.424 C 247.152 112.436,247.339 112.661,247.754 112.924 M148.575 116.316 C 141.922 120.953,136.400 125.482,136.400 126.301 C 136.400 126.449,137.255 125.754,138.300 124.756 C 141.101 122.082,143.645 120.104,148.964 116.462 C 151.585 114.668,153.565 113.207,153.364 113.216 C 153.164 113.225,151.009 114.620,148.575 116.316 M254.800 117.294 C 254.800 117.399,256.550 118.816,258.689 120.443 C 263.861 124.376,271.895 132.462,275.761 137.625 C 278.866 141.771,280.052 143.203,279.385 142.000 C 276.756 137.260,265.240 124.947,259.200 120.419 C 257.330 119.017,255.575 117.697,255.300 117.486 C 255.025 117.275,254.800 117.188,254.800 117.294 M281.281 128.446 C 282.274 129.681,284.404 132.561,286.014 134.846 C 289.024 139.117,290.304 140.717,289.018 138.600 C 287.596 136.261,281.460 128.009,280.475 127.111 C 279.925 126.610,280.288 127.211,281.281 128.446 M131.543 130.900 C 129.698 132.935,127.925 134.960,127.602 135.400 C 127.280 135.840,128.195 134.940,129.636 133.400 C 133.458 129.315,135.320 127.200,135.096 127.200 C 134.987 127.200,133.389 128.865,131.543 130.900 M212.223 132.489 C 211.880 132.978,211.610 133.743,211.623 134.189 C 211.637 134.708,211.817 134.496,212.123 133.600 C 212.846 131.480,214.229 131.618,214.121 133.800 L 214.042 135.400 214.441 134.066 C 215.105 131.847,213.481 130.693,212.223 132.489 M190.790 135.300 C 190.059 135.795,189.389 136.470,189.301 136.800 C 189.212 137.134,189.464 137.006,189.870 136.510 C 190.272 136.021,191.320 135.359,192.200 135.039 C 193.240 134.660,193.506 134.447,192.959 134.428 C 192.497 134.413,191.521 134.805,190.790 135.300 M199.487 134.646 C 199.351 134.782,198.646 135.033,197.920 135.205 C 196.827 135.464,196.772 135.523,197.600 135.545 C 198.150 135.560,199.050 135.314,199.600 135.000 C 200.150 134.686,200.405 134.422,200.167 134.414 C 199.928 134.406,199.622 134.511,199.487 134.646 M203.873 135.177 C 206.100 136.188,206.946 137.830,206.710 140.683 C 206.610 141.884,206.676 142.606,206.860 142.317 C 208.447 139.816,205.654 134.376,202.800 134.410 C 202.470 134.414,202.953 134.759,203.873 135.177 M211.062 135.870 C 210.947 136.271,210.467 137.922,209.998 139.538 C 209.528 141.154,209.220 142.553,209.313 142.646 C 209.406 142.739,209.955 141.159,210.533 139.133 C 211.111 137.108,211.514 135.381,211.429 135.295 C 211.343 135.210,211.178 135.468,211.062 135.870 M213.400 136.400 C 213.250 136.873,213.217 137.350,213.327 137.460 C 213.437 137.570,213.650 137.273,213.800 136.800 C 213.950 136.327,213.983 135.850,213.873 135.740 C 213.763 135.630,213.550 135.927,213.400 136.400 M124.282 139.700 C 121.494 143.670,120.258 145.600,120.504 145.600 C 120.605 145.600,121.369 144.565,122.203 143.300 C 123.037 142.035,124.501 139.965,125.456 138.700 C 126.412 137.435,127.060 136.400,126.897 136.400 C 126.733 136.401,125.557 137.886,124.282 139.700 M181.900 139.465 C 180.195 141.166,178.800 142.832,178.800 143.167 C 178.800 144.447,185.093 150.085,185.988 149.606 C 187.344 148.881,186.962 147.530,184.800 145.400 C 182.343 142.980,182.343 143.020,184.816 140.585 C 186.336 139.089,186.804 138.354,186.716 137.600 C 186.492 135.674,185.199 136.175,181.900 139.465 M216.080 136.880 C 215.283 137.677,215.506 138.135,217.800 140.400 C 219.010 141.595,220.000 142.743,220.000 142.950 C 220.000 143.158,219.010 144.366,217.800 145.634 C 215.424 148.125,215.145 148.928,216.420 149.611 C 217.144 149.998,217.615 149.685,220.420 146.956 C 224.379 143.103,224.385 142.934,220.700 139.389 L 217.800 136.600 220.500 139.410 C 223.856 142.902,223.854 143.173,220.451 146.550 C 216.316 150.653,214.195 149.833,218.168 145.668 C 220.879 142.825,220.877 143.173,218.200 140.366 C 215.758 137.806,215.588 137.340,216.900 136.812 C 217.452 136.591,217.560 136.441,217.180 136.425 C 216.839 136.411,216.344 136.616,216.080 136.880 M186.400 137.664 C 186.400 138.168,185.453 139.520,184.125 140.913 L 181.850 143.298 184.125 145.381 C 186.440 147.502,187.143 149.203,185.700 149.197 C 184.902 149.193,179.200 143.851,179.200 143.107 C 179.200 142.339,184.899 136.800,185.690 136.800 C 186.151 136.800,186.400 137.103,186.400 137.664 M191.629 137.854 C 190.657 139.089,190.597 139.940,191.352 141.747 C 192.169 143.701,196.704 148.400,197.774 148.400 C 198.646 148.400,204.000 143.550,204.000 142.760 C 204.000 142.554,202.808 143.648,201.352 145.193 C 198.057 148.685,197.689 148.702,194.653 145.511 C 191.115 141.793,190.402 139.562,192.182 137.782 C 192.722 137.242,193.005 136.800,192.811 136.800 C 192.617 136.800,192.085 137.274,191.629 137.854 M195.800 137.790 C 197.804 139.024,198.033 139.025,199.838 137.800 C 200.649 137.250,201.131 136.800,200.910 136.800 C 200.689 136.800,200.050 137.160,199.491 137.600 C 198.222 138.598,197.708 138.598,196.200 137.600 C 195.540 137.163,194.820 136.805,194.600 136.805 C 194.380 136.804,194.920 137.248,195.800 137.790 M188.667 137.867 C 186.472 140.062,194.131 151.600,197.783 151.600 C 199.245 151.600,206.408 144.745,206.397 143.356 C 206.396 143.160,206.041 143.536,205.609 144.191 C 203.351 147.618,198.591 151.441,197.152 150.985 C 193.722 149.896,188.480 142.403,188.909 139.203 C 189.132 137.538,189.111 137.422,188.667 137.867 M204.198 140.005 C 204.197 141.064,204.329 141.721,204.492 141.465 C 204.879 140.856,204.885 138.499,204.500 138.263 C 204.335 138.162,204.199 138.946,204.198 140.005 M212.600 139.200 C 212.450 139.673,212.417 140.150,212.527 140.260 C 212.637 140.370,212.850 140.073,213.000 139.600 C 213.150 139.127,213.183 138.650,213.073 138.540 C 212.963 138.430,212.750 138.727,212.600 139.200 M289.600 140.145 C 289.600 140.328,289.952 140.971,290.382 141.575 C 290.812 142.179,292.249 144.727,293.575 147.237 C 294.902 149.746,295.990 151.636,295.993 151.435 C 295.997 151.234,295.011 149.200,293.802 146.916 C 291.591 142.739,289.600 139.531,289.600 140.145 M211.800 142.000 C 211.650 142.473,211.617 142.950,211.727 143.060 C 211.837 143.170,212.050 142.873,212.200 142.400 C 212.350 141.927,212.383 141.450,212.273 141.340 C 212.163 141.230,211.950 141.527,211.800 142.000 M109.262 144.862 C 108.777 145.770,108.442 146.576,108.518 146.652 C 108.595 146.728,109.054 146.047,109.538 145.138 C 110.023 144.230,110.358 143.424,110.282 143.348 C 110.205 143.272,109.746 143.953,109.262 144.862 M281.577 146.163 C 282.440 147.572,283.530 149.479,284.001 150.401 C 284.471 151.323,284.938 151.995,285.038 151.895 C 285.324 151.609,280.652 143.600,280.199 143.600 C 280.094 143.600,280.714 144.753,281.577 146.163 M208.051 146.162 C 207.328 149.035,208.246 151.032,209.561 149.446 C 209.919 149.016,209.808 148.948,209.003 149.101 C 207.847 149.323,207.735 148.769,208.431 146.262 C 208.666 145.417,208.778 144.645,208.681 144.547 C 208.583 144.449,208.300 145.176,208.051 146.162 M119.083 147.700 C 116.966 151.327,113.012 159.593,113.295 159.800 C 113.353 159.842,114.945 156.755,116.834 152.939 C 118.722 149.122,120.225 146.000,120.172 146.000 C 120.119 146.000,119.629 146.765,119.083 147.700 M105.933 151.424 C 104.823 153.748,103.998 155.732,104.100 155.834 C 104.202 155.936,104.657 155.160,105.111 154.109 C 105.564 153.059,106.482 151.075,107.151 149.700 C 107.819 148.325,108.273 147.200,108.158 147.200 C 108.044 147.200,107.043 149.101,105.933 151.424 M296.017 152.300 C 296.039 152.701,297.562 155.470,297.583 155.149 C 297.611 154.735,296.405 152.000,296.195 152.000 C 296.088 152.000,296.008 152.135,296.017 152.300 M285.744 153.728 C 286.471 155.468,287.564 157.477,287.584 157.112 C 287.608 156.682,285.608 152.400,285.383 152.400 C 285.276 152.400,285.439 152.998,285.744 153.728 M103.058 158.104 C 102.128 160.540,102.280 161.004,103.236 158.647 C 103.672 157.573,103.958 156.624,103.872 156.538 C 103.786 156.452,103.420 157.157,103.058 158.104 M101.000 164.000 C 100.850 164.473,100.817 164.950,100.927 165.060 C 101.037 165.170,101.250 164.873,101.400 164.400 C 101.550 163.927,101.583 163.450,101.473 163.340 C 101.363 163.230,101.150 163.527,101.000 164.000 M300.834 164.600 C 300.822 165.040,300.987 165.670,301.200 166.000 C 301.714 166.795,301.714 165.796,301.200 164.600 L 300.856 163.800 300.834 164.600 M100.200 166.800 C 100.050 167.273,100.017 167.750,100.127 167.860 C 100.237 167.970,100.450 167.673,100.600 167.200 C 100.750 166.727,100.783 166.250,100.673 166.140 C 100.563 166.030,100.350 166.327,100.200 166.800 M301.631 167.009 C 301.614 167.234,302.030 169.124,302.555 171.209 C 303.080 173.294,303.647 175.990,303.814 177.200 C 303.981 178.410,304.193 179.183,304.286 178.918 C 304.510 178.279,303.401 172.468,302.432 169.200 C 302.008 167.770,301.647 166.784,301.631 167.009 M99.429 169.829 C 99.281 170.415,99.238 170.972,99.332 171.066 C 99.427 171.160,99.624 170.758,99.771 170.171 C 99.919 169.585,99.962 169.028,99.868 168.934 C 99.773 168.840,99.576 169.242,99.429 169.829 M291.661 169.400 C 291.650 169.620,292.086 171.420,292.629 173.400 C 293.171 175.380,293.526 176.271,293.416 175.379 C 293.220 173.794,291.699 168.610,291.661 169.400 M109.449 171.015 C 109.312 171.373,109.215 171.966,109.234 172.333 C 109.253 172.700,109.427 172.469,109.621 171.820 C 109.998 170.558,109.865 169.933,109.449 171.015 M176.684 171.057 C 175.775 171.534,174.470 173.803,174.874 174.207 C 174.974 174.307,175.301 173.763,175.601 172.998 C 176.182 171.516,177.122 170.992,178.900 171.158 C 180.370 171.295,180.312 170.937,178.829 170.719 C 178.185 170.624,177.220 170.777,176.684 171.057 M183.028 171.597 C 184.144 171.761,185.437 172.099,185.902 172.348 C 186.367 172.596,186.894 172.792,187.074 172.783 C 188.400 172.715,184.244 171.240,182.800 171.267 L 181.000 171.300 183.028 171.597 M98.460 173.920 C 98.207 175.086,98.014 176.436,98.032 176.920 C 98.049 177.404,98.318 176.630,98.629 175.200 C 98.941 173.770,99.133 172.420,99.058 172.200 C 98.983 171.980,98.714 172.754,98.460 173.920 M187.600 172.962 C 187.600 173.052,189.175 173.538,191.100 174.042 C 193.755 174.738,194.871 175.245,195.721 176.144 C 196.839 177.326,196.841 177.327,196.361 176.275 C 195.864 175.183,194.644 174.605,190.338 173.422 C 187.935 172.761,187.600 172.705,187.600 172.962 M108.673 174.153 C 108.523 174.545,108.411 175.166,108.425 175.533 C 108.442 175.975,108.581 175.874,108.837 175.234 C 109.049 174.703,109.161 174.082,109.085 173.854 C 109.009 173.627,108.824 173.761,108.673 174.153 M173.644 177.255 C 173.180 178.630,172.813 179.945,172.830 180.178 C 172.846 180.410,173.295 179.354,173.827 177.830 C 174.359 176.307,174.726 174.992,174.641 174.908 C 174.557 174.824,174.109 175.880,173.644 177.255 M107.800 178.800 C 107.646 179.710,107.604 180.538,107.707 180.640 C 107.810 180.743,108.013 180.077,108.160 179.160 C 108.307 178.243,108.348 177.415,108.253 177.320 C 108.158 177.224,107.954 177.890,107.800 178.800 M293.695 178.000 C 293.695 178.550,293.832 179.540,294.000 180.200 C 294.272 181.270,294.305 181.292,294.305 180.400 C 294.305 179.850,294.168 178.860,294.000 178.200 C 293.728 177.130,293.695 177.108,293.695 178.000 M197.027 178.400 C 197.175 178.950,197.384 180.178,197.491 181.128 C 197.637 182.425,197.899 182.936,198.542 183.177 C 200.680 183.977,202.476 184.457,202.657 184.277 C 202.854 184.079,201.158 183.484,199.100 183.028 C 198.166 182.822,198.000 182.581,198.000 181.438 C 198.000 180.698,197.720 179.486,197.378 178.746 C 196.997 177.922,196.861 177.788,197.027 178.400 M97.472 179.487 C 96.221 187.569,96.291 203.108,97.606 209.000 L 97.963 210.600 97.814 209.000 C 96.900 199.177,96.724 189.891,97.344 184.233 C 97.947 178.729,98.023 175.930,97.472 179.487 M251.200 178.800 L 248.200 179.056 250.800 179.105 C 252.230 179.132,254.120 179.005,255.000 178.823 C 256.954 178.419,255.754 178.412,251.200 178.800 M259.400 178.800 C 261.092 179.231,262.544 179.231,261.200 178.800 C 260.650 178.624,259.750 178.483,259.200 178.487 C 258.302 178.494,258.322 178.526,259.400 178.800 M244.521 181.152 C 243.244 182.226,241.570 183.794,240.800 184.637 C 240.030 185.481,240.722 184.949,242.339 183.456 C 243.955 181.963,245.845 180.395,246.539 179.972 C 247.232 179.549,247.584 179.202,247.321 179.201 C 247.057 179.201,245.797 180.079,244.521 181.152 M262.400 179.311 C 262.400 179.387,262.985 179.878,263.700 180.401 C 264.504 180.990,264.784 181.087,264.433 180.655 C 263.900 179.999,262.400 179.007,262.400 179.311 M304.423 181.233 C 304.436 181.985,304.605 183.320,304.798 184.200 C 305.069 185.430,305.098 185.152,304.926 183.000 C 304.687 180.020,304.385 178.958,304.423 181.233 M106.988 184.188 C 106.831 185.864,106.793 187.326,106.903 187.436 C 107.013 187.546,107.231 186.264,107.388 184.588 C 107.545 182.912,107.584 181.450,107.474 181.340 C 107.364 181.230,107.145 182.512,106.988 184.188 M294.677 185.000 C 294.798 186.760,294.965 188.275,295.049 188.367 C 295.319 188.664,295.150 185.450,294.799 183.600 C 294.542 182.247,294.512 182.594,294.677 185.000 M137.680 183.680 C 137.416 183.944,137.226 184.799,137.257 185.580 L 137.314 187.000 137.557 185.400 L 137.800 183.800 140.200 183.814 C 141.520 183.822,143.140 183.958,143.800 184.118 C 144.852 184.372,144.827 184.337,143.600 183.834 C 141.869 183.125,138.327 183.033,137.680 183.680 M264.015 184.582 C 263.749 184.902,262.737 185.630,261.766 186.199 C 260.795 186.768,260.000 187.331,260.000 187.449 C 260.000 187.796,262.909 185.968,263.991 184.940 C 264.536 184.423,264.873 184.000,264.740 184.000 C 264.607 184.000,264.281 184.262,264.015 184.582 M203.200 184.524 C 203.200 184.617,203.916 185.167,204.791 185.747 C 206.338 186.770,206.922 187.764,210.344 195.200 L 210.804 196.200 210.570 195.200 C 210.204 193.641,207.650 188.339,206.620 187.004 C 205.811 185.953,203.200 184.060,203.200 184.524 M147.800 185.673 C 148.240 185.920,149.140 186.493,149.800 186.945 C 150.780 187.618,150.895 187.638,150.429 187.058 C 150.115 186.667,149.359 186.089,148.749 185.774 C 147.449 185.101,146.626 185.014,147.800 185.673 M233.594 190.925 C 228.931 195.144,216.744 207.000,217.072 207.000 C 217.135 207.000,219.665 204.570,222.695 201.600 C 227.850 196.546,237.804 187.415,238.891 186.744 C 239.158 186.579,239.288 186.355,239.180 186.247 C 239.072 186.139,236.558 188.244,233.594 190.925 M305.370 195.200 C 305.370 199.930,305.428 201.865,305.498 199.500 C 305.569 197.135,305.569 193.265,305.498 190.900 C 305.428 188.535,305.370 190.470,305.370 195.200 M151.200 187.850 C 151.200 188.055,151.573 188.488,152.029 188.812 C 152.485 189.135,153.734 190.577,154.805 192.016 C 155.875 193.454,157.150 194.984,157.639 195.416 C 158.127 195.847,157.247 194.571,155.683 192.579 C 152.732 188.824,151.200 187.207,151.200 187.850 M255.600 189.797 C 253.510 191.001,251.350 192.372,250.800 192.843 L 249.800 193.698 250.800 193.056 C 251.350 192.703,253.555 191.401,255.700 190.165 C 259.024 188.248,260.008 187.585,259.500 187.604 C 259.445 187.606,257.690 188.593,255.600 189.797 M106.677 195.400 C 106.796 199.580,107.039 203.900,107.216 205.000 C 107.543 207.033,107.533 206.753,106.785 193.521 C 106.494 188.375,106.483 188.563,106.677 195.400 M138.420 189.299 C 138.388 189.772,141.312 195.621,141.490 195.443 C 141.579 195.355,140.929 193.869,140.046 192.141 C 139.162 190.414,138.431 189.134,138.420 189.299 M169.000 190.400 C 168.850 190.873,168.817 191.350,168.927 191.460 C 169.037 191.570,169.250 191.273,169.400 190.800 C 169.550 190.327,169.583 189.850,169.473 189.740 C 169.363 189.630,169.150 189.927,169.000 190.400 M295.363 196.000 C 295.363 199.630,295.423 201.115,295.498 199.300 C 295.572 197.485,295.572 194.515,295.498 192.700 C 295.423 190.885,295.363 192.370,295.363 196.000 M246.105 195.973 C 242.226 199.210,240.581 200.814,236.666 205.179 C 234.210 207.917,231.610 210.797,230.888 211.579 C 230.166 212.360,229.379 213.360,229.139 213.800 C 228.614 214.762,228.296 215.097,234.426 208.220 C 240.062 201.897,241.197 200.726,244.819 197.502 C 247.218 195.365,248.126 194.288,246.105 195.973 M141.709 196.300 C 141.795 196.465,142.174 197.275,142.552 198.100 C 142.929 198.925,143.330 199.600,143.442 199.600 C 143.555 199.600,143.577 199.465,143.491 199.300 C 143.405 199.135,143.026 198.325,142.648 197.500 C 142.271 196.675,141.870 196.000,141.758 196.000 C 141.645 196.000,141.623 196.135,141.709 196.300 M158.851 197.090 C 159.858 198.355,161.388 200.131,162.540 201.372 C 163.167 202.047,162.570 201.205,161.214 199.500 C 159.858 197.795,158.648 196.400,158.525 196.400 C 158.403 196.400,158.549 196.710,158.851 197.090 M166.054 198.829 C 165.546 200.140,164.863 201.480,164.536 201.807 C 164.210 202.133,164.114 202.400,164.322 202.400 C 165.064 202.400,167.628 197.095,167.128 196.595 C 167.046 196.513,166.562 197.518,166.054 198.829 M143.645 200.204 C 144.041 201.238,146.146 204.787,146.283 204.650 C 146.367 204.566,145.869 203.530,145.176 202.348 C 143.942 200.246,143.336 199.397,143.645 200.204 M192.687 203.700 C 192.017 204.203,190.639 207.572,190.968 207.901 C 191.065 207.998,191.373 207.314,191.653 206.380 C 191.956 205.370,192.453 204.607,192.881 204.495 C 193.276 204.391,193.600 204.058,193.600 203.753 C 193.600 203.075,193.525 203.071,192.687 203.700 M294.640 205.840 C 294.490 207.303,294.449 208.582,294.548 208.682 C 294.648 208.781,294.857 207.671,295.013 206.213 C 295.169 204.756,295.211 203.477,295.105 203.372 C 294.999 203.266,294.790 204.377,294.640 205.840 M193.628 205.633 C 193.644 206.165,193.819 206.960,194.019 207.400 C 194.271 207.958,194.307 207.715,194.138 206.600 C 193.855 204.743,193.587 204.236,193.628 205.633 M304.672 206.204 C 304.527 207.082,304.429 208.340,304.453 209.000 C 304.478 209.660,304.655 209.120,304.848 207.800 C 305.240 205.115,305.085 203.707,304.672 206.204 M147.208 206.600 C 149.480 210.439,157.642 222.332,156.130 219.600 C 155.581 218.608,146.773 205.437,146.507 205.210 C 146.372 205.095,146.687 205.720,147.208 206.600 M214.000 205.849 C 214.000 206.529,215.502 207.703,216.077 207.473 C 216.426 207.333,216.375 207.253,215.923 207.232 C 215.550 207.214,214.965 206.800,214.623 206.311 C 214.280 205.822,214.000 205.614,214.000 205.849 M107.628 208.433 C 107.644 209.185,107.820 210.160,108.020 210.600 C 108.265 211.139,108.305 210.746,108.141 209.400 C 107.851 207.019,107.589 206.524,107.628 208.433 M293.840 211.240 C 293.693 212.157,293.652 212.985,293.747 213.080 C 293.842 213.176,294.046 212.510,294.200 211.600 C 294.354 210.690,294.396 209.862,294.293 209.760 C 294.190 209.657,293.987 210.323,293.840 211.240 M98.093 212.000 C 98.093 212.770,98.175 213.085,98.276 212.700 C 98.376 212.315,98.376 211.685,98.276 211.300 C 98.175 210.915,98.093 211.230,98.093 212.000 M195.073 212.400 C 195.204 213.390,195.376 214.275,195.456 214.367 C 195.757 214.714,195.528 212.164,195.190 211.400 C 194.953 210.866,194.914 211.198,195.073 212.400 M303.869 211.956 C 303.721 212.695,303.620 213.683,303.644 214.150 C 303.668 214.618,303.847 214.190,304.042 213.200 C 304.237 212.210,304.338 211.223,304.267 211.006 C 304.196 210.790,304.017 211.217,303.869 211.956 M108.446 213.200 C 108.427 213.750,108.587 214.470,108.800 214.800 C 109.294 215.564,109.294 214.742,108.800 213.200 L 108.480 212.200 108.446 213.200 M98.480 214.200 C 98.480 214.640,98.624 215.450,98.800 216.000 C 99.054 216.792,99.120 216.833,99.120 216.200 C 99.120 215.760,98.976 214.950,98.800 214.400 C 98.546 213.608,98.480 213.567,98.480 214.200 M292.857 215.857 C 292.574 217.077,292.416 218.149,292.506 218.240 C 292.597 218.330,292.909 217.412,293.200 216.200 C 293.491 214.988,293.649 213.915,293.551 213.817 C 293.453 213.720,293.141 214.637,292.857 215.857 M187.299 217.113 C 186.085 220.243,186.184 220.802,187.423 217.818 C 187.967 216.507,188.364 215.291,188.305 215.115 C 188.246 214.939,187.794 215.838,187.299 217.113 M302.667 218.067 C 302.291 219.634,302.055 220.989,302.144 221.077 C 302.232 221.165,302.617 219.961,303.000 218.400 C 303.383 216.839,303.618 215.485,303.523 215.390 C 303.428 215.295,303.043 216.499,302.667 218.067 M229.040 216.465 C 229.300 216.885,233.223 218.910,233.412 218.722 C 233.484 218.649,232.482 218.033,231.183 217.352 C 229.885 216.671,228.921 216.272,229.040 216.465 M109.256 216.800 C 109.256 217.130,109.411 217.760,109.600 218.200 C 109.817 218.704,109.944 218.778,109.944 218.400 C 109.944 218.070,109.789 217.440,109.600 217.000 C 109.383 216.496,109.256 216.422,109.256 216.800 M196.093 218.000 C 196.093 218.770,196.175 219.085,196.276 218.700 C 196.376 218.315,196.376 217.685,196.276 217.300 C 196.175 216.915,196.093 217.230,196.093 218.000 M99.256 218.000 C 99.256 218.330,99.411 218.960,99.600 219.400 C 99.817 219.904,99.944 219.978,99.944 219.600 C 99.944 219.270,99.789 218.640,99.600 218.200 C 99.383 217.696,99.256 217.622,99.256 218.000 M110.006 219.833 C 110.009 220.255,110.195 220.870,110.418 221.200 C 110.715 221.638,110.752 221.476,110.556 220.600 C 110.227 219.129,109.998 218.810,110.006 219.833 M196.673 221.200 C 196.804 222.190,196.976 223.075,197.056 223.167 C 197.357 223.514,197.128 220.964,196.790 220.200 C 196.553 219.666,196.514 219.998,196.673 221.200 M238.000 221.337 C 238.000 221.547,241.903 225.303,244.700 227.785 C 247.997 230.710,246.348 228.904,242.200 225.047 C 239.890 222.899,238.000 221.230,238.000 221.337 M301.233 223.433 C 300.941 224.424,300.789 225.322,300.896 225.429 C 301.002 225.536,301.319 224.803,301.600 223.800 C 301.881 222.797,302.033 221.899,301.938 221.804 C 301.843 221.710,301.526 222.443,301.233 223.433 M157.105 224.000 C 156.448 228.983,156.424 229.729,157.010 227.000 C 157.341 225.460,157.563 223.660,157.503 223.000 C 157.428 222.163,157.307 222.466,157.105 224.000 M183.627 226.627 C 182.677 228.940,181.976 230.910,182.071 231.004 C 182.165 231.098,183.003 229.266,183.933 226.933 C 184.864 224.600,185.564 222.630,185.489 222.556 C 185.415 222.482,184.577 224.313,183.627 226.627 M197.473 225.600 C 197.604 226.590,197.776 227.475,197.856 227.567 C 198.157 227.914,197.928 225.364,197.590 224.600 C 197.353 224.066,197.314 224.398,197.473 225.600 M221.462 228.331 C 220.764 229.103,220.613 232.100,221.176 234.000 C 221.358 234.615,221.458 233.776,221.436 231.819 C 221.402 228.813,221.455 228.610,222.400 228.125 C 223.029 227.803,223.163 227.610,222.762 227.606 C 222.411 227.603,221.826 227.929,221.462 228.331 M198.080 228.600 C 198.080 229.040,198.224 229.850,198.400 230.400 C 198.654 231.192,198.720 231.233,198.720 230.600 C 198.720 230.160,198.576 229.350,198.400 228.800 C 198.146 228.008,198.080 227.967,198.080 228.600 M226.142 230.195 C 227.565 231.402,229.330 233.086,230.064 233.937 C 232.744 237.042,244.000 247.206,244.000 246.522 C 244.000 246.337,243.563 245.919,243.029 245.593 C 241.926 244.919,239.644 242.794,230.707 234.113 C 227.246 230.751,224.221 228.000,223.984 228.000 C 223.748 228.000,224.719 228.988,226.142 230.195 M251.443 234.077 C 256.788 239.304,256.947 239.447,255.382 237.600 C 253.957 235.918,247.408 229.600,247.091 229.600 C 246.967 229.600,248.926 231.615,251.443 234.077 M155.782 231.782 C 155.629 232.802,155.594 233.727,155.704 233.837 C 155.814 233.947,156.029 233.202,156.182 232.182 C 156.335 231.161,156.370 230.237,156.260 230.127 C 156.150 230.017,155.935 230.761,155.782 231.782 M114.010 231.400 C 114.006 231.964,118.382 240.954,118.565 240.760 C 118.648 240.672,117.658 238.440,116.364 235.800 C 115.071 233.160,114.011 231.180,114.010 231.400 M198.992 232.800 C 199.231 234.318,201.163 238.570,201.474 238.260 C 201.578 238.155,201.361 237.607,200.991 237.043 C 200.621 236.478,199.970 234.977,199.545 233.708 C 199.039 232.197,198.848 231.883,198.992 232.800 M104.026 233.553 C 103.996 234.192,109.959 246.574,110.188 246.346 C 110.271 246.262,109.399 244.305,108.250 241.997 C 107.100 239.689,105.686 236.720,105.106 235.400 C 104.527 234.080,104.041 233.249,104.026 233.553 M180.649 234.615 C 180.512 234.973,180.418 235.656,180.441 236.133 C 180.467 236.681,180.603 236.486,180.810 235.603 C 181.160 234.116,181.065 233.533,180.649 234.615 M155.069 235.556 C 154.921 236.295,154.821 237.463,154.847 238.150 C 154.879 239.012,155.005 238.725,155.255 237.223 C 155.653 234.821,155.497 233.417,155.069 235.556 M284.493 238.537 C 283.335 240.772,282.675 242.240,283.026 241.800 C 283.784 240.852,286.906 234.771,286.725 234.596 C 286.656 234.529,285.652 236.303,284.493 238.537 M179.849 238.215 C 179.712 238.573,179.618 239.256,179.641 239.733 C 179.667 240.281,179.803 240.086,180.010 239.203 C 180.360 237.716,180.265 237.133,179.849 238.215 M222.080 238.200 C 222.080 238.640,222.224 239.450,222.400 240.000 C 222.654 240.792,222.720 240.833,222.720 240.200 C 222.720 239.760,222.576 238.950,222.400 238.400 C 222.146 237.608,222.080 237.567,222.080 238.200 M257.295 240.400 C 257.834 241.170,258.379 242.070,258.506 242.400 C 258.708 242.924,258.741 242.922,258.768 242.385 C 258.786 242.047,258.241 241.147,257.557 240.385 L 256.314 239.000 257.295 240.400 M154.493 241.600 C 154.493 242.370,154.575 242.685,154.676 242.300 C 154.776 241.915,154.776 241.285,154.676 240.900 C 154.575 240.515,154.493 240.830,154.493 241.600 M294.280 241.680 C 293.892 242.356,293.657 242.991,293.758 243.091 C 293.859 243.192,294.238 242.701,294.600 242.000 C 295.457 240.343,295.197 240.083,294.280 241.680 M119.400 242.400 C 119.741 243.060,120.111 243.600,120.221 243.600 C 120.331 243.600,120.141 243.060,119.800 242.400 C 119.459 241.740,119.089 241.200,118.979 241.200 C 118.869 241.200,119.059 241.740,119.400 242.400 M223.096 243.446 C 223.212 244.521,223.372 245.475,223.453 245.567 C 223.772 245.929,223.565 242.565,223.237 242.046 C 223.022 241.707,222.968 242.251,223.096 243.446 M179.056 243.284 C 178.921 243.788,178.827 244.560,178.846 245.000 C 178.865 245.440,179.045 245.098,179.246 244.240 C 179.636 242.578,179.470 241.740,179.056 243.284 M281.046 244.600 C 280.691 245.150,280.109 246.095,279.753 246.700 L 279.105 247.800 279.910 246.826 C 280.860 245.676,282.121 243.600,281.869 243.600 C 281.771 243.600,281.401 244.050,281.046 244.600 M291.938 245.900 C 290.325 248.674,290.026 249.428,291.185 247.800 C 292.189 246.390,293.691 243.600,293.446 243.600 C 293.353 243.600,292.674 244.635,291.938 245.900 M120.648 244.500 C 122.257 247.226,126.578 253.200,126.941 253.200 C 127.080 253.200,126.412 252.165,125.456 250.900 C 124.501 249.635,123.037 247.565,122.203 246.300 C 120.901 244.325,119.776 243.022,120.648 244.500 M154.852 245.880 C 154.762 249.460,155.479 251.772,157.271 253.681 C 158.340 254.820,158.492 254.920,157.723 253.978 C 156.130 252.027,155.669 250.725,155.258 247.000 C 154.946 244.175,154.898 244.044,154.852 245.880 M258.432 244.506 C 258.414 244.894,257.815 245.568,257.100 246.004 C 256.385 246.440,256.015 246.798,256.278 246.799 C 257.111 246.801,258.927 244.974,258.689 244.371 C 258.521 243.946,258.455 243.980,258.432 244.506 M204.689 245.230 C 205.178 245.739,205.678 246.055,205.801 245.932 C 205.924 245.809,205.524 245.392,204.912 245.006 L 203.800 244.304 204.689 245.230 M111.211 248.200 C 112.598 250.561,115.997 255.600,116.203 255.600 C 116.413 255.600,111.260 247.588,110.672 247.000 C 110.452 246.780,110.695 247.320,111.211 248.200 M253.200 247.200 C 252.667 247.545,252.667 247.588,253.200 247.588 C 253.530 247.588,254.070 247.413,254.400 247.200 C 254.933 246.855,254.933 246.812,254.400 246.812 C 254.070 246.812,253.530 246.987,253.200 247.200 M246.600 248.000 C 247.040 248.189,247.670 248.344,248.000 248.344 C 248.378 248.344,248.304 248.217,247.800 248.000 C 247.360 247.811,246.730 247.656,246.400 247.656 C 246.022 247.656,246.096 247.783,246.600 248.000 M276.281 251.400 C 274.811 253.270,273.741 254.792,273.904 254.783 C 274.175 254.767,275.012 253.731,278.174 249.500 C 280.310 246.641,278.940 248.016,276.281 251.400 M214.200 248.800 C 214.640 248.989,215.360 249.144,215.800 249.144 L 216.600 249.144 215.800 248.800 C 215.360 248.611,214.640 248.456,214.200 248.456 L 213.400 248.456 214.200 248.800 M219.200 248.800 C 218.667 249.145,218.667 249.188,219.200 249.188 C 219.530 249.188,220.070 249.013,220.400 248.800 C 220.933 248.455,220.933 248.412,220.400 248.412 C 220.070 248.412,219.530 248.587,219.200 248.800 M177.400 249.600 C 177.250 250.073,177.217 250.550,177.327 250.660 C 177.437 250.770,177.650 250.473,177.800 250.000 C 177.950 249.527,177.983 249.050,177.873 248.940 C 177.763 248.830,177.550 249.127,177.400 249.600 M286.997 253.856 C 285.706 255.756,283.860 258.321,282.895 259.556 L 281.140 261.800 282.782 260.000 C 284.687 257.911,289.941 250.400,289.496 250.400 C 289.412 250.400,288.288 251.955,286.997 253.856 M176.435 252.493 C 175.534 255.225,172.400 257.697,170.153 257.450 L 168.200 257.235 170.136 257.667 L 172.071 258.100 174.081 256.150 C 175.914 254.371,177.516 251.782,177.063 251.330 C 176.962 251.229,176.680 251.752,176.435 252.493 M128.844 255.596 C 131.061 258.368,136.806 264.400,137.229 264.400 C 137.404 264.400,136.423 263.275,135.050 261.900 C 133.677 260.525,131.323 258.050,129.820 256.400 C 127.950 254.348,127.642 254.094,128.844 255.596 M160.000 255.800 C 160.550 256.114,161.270 256.371,161.600 256.370 C 161.930 256.369,161.594 256.106,160.854 255.784 C 159.151 255.045,158.694 255.053,160.000 255.800 M268.200 260.561 C 262.566 266.317,258.053 270.113,253.379 273.026 C 250.550 274.790,249.363 275.775,251.300 274.753 C 254.670 272.975,259.819 269.053,264.626 264.601 C 267.999 261.479,274.022 255.143,273.541 255.224 C 273.464 255.237,271.060 257.638,268.200 260.561 M117.191 257.188 C 117.657 257.841,118.242 258.502,118.491 258.656 C 118.741 258.811,118.441 258.276,117.825 257.468 C 116.488 255.715,115.984 255.492,117.191 257.188 M163.000 256.820 C 163.778 257.135,168.300 257.347,167.967 257.053 C 167.875 256.972,166.540 256.814,165.000 256.701 C 163.398 256.584,162.542 256.635,163.000 256.820 M121.142 262.100 C 129.674 272.437,142.498 282.616,154.148 288.297 C 155.660 289.034,156.963 289.571,157.044 289.490 C 157.125 289.409,156.068 288.816,154.695 288.171 C 143.491 282.912,129.781 272.077,121.198 261.700 C 120.061 260.325,119.045 259.200,118.940 259.200 C 118.835 259.200,119.826 260.505,121.142 262.100 M275.600 267.570 C 272.630 270.606,268.310 274.574,266.000 276.388 C 261.410 279.994,260.230 281.044,262.400 279.593 C 267.119 276.437,282.817 261.720,281.140 262.025 C 281.063 262.039,278.570 264.534,275.600 267.570 M139.517 266.522 C 141.535 268.367,144.223 270.472,145.200 270.974 C 145.530 271.143,145.170 270.769,144.400 270.142 C 143.630 269.515,141.880 268.057,140.512 266.901 C 137.508 264.364,136.907 264.135,139.517 266.522 M147.600 272.822 C 149.656 274.214,151.600 275.299,151.600 275.055 C 151.600 274.833,146.429 271.600,146.077 271.602 C 145.925 271.603,146.610 272.152,147.600 272.822 M152.600 275.807 C 153.040 276.166,153.760 276.635,154.200 276.851 L 155.000 277.244 154.200 276.593 C 153.760 276.234,153.040 275.765,152.600 275.549 L 151.800 275.156 152.600 275.807 M247.242 276.810 C 244.061 278.766,243.552 279.272,246.200 277.846 C 248.078 276.835,250.443 275.206,250.000 275.228 C 249.890 275.233,248.649 275.945,247.242 276.810 M155.200 277.379 C 155.200 277.489,155.740 277.859,156.400 278.200 C 157.060 278.541,157.600 278.731,157.600 278.621 C 157.600 278.511,157.060 278.141,156.400 277.800 C 155.740 277.459,155.200 277.269,155.200 277.379 M236.800 281.800 C 235.494 282.547,235.951 282.555,237.654 281.816 C 238.394 281.494,238.730 281.231,238.400 281.230 C 238.070 281.229,237.350 281.486,236.800 281.800 M255.200 283.852 C 252.890 285.298,249.695 287.113,248.100 287.885 C 245.230 289.274,244.279 289.930,246.186 289.205 C 249.148 288.079,260.845 281.056,259.500 281.212 C 259.445 281.218,257.510 282.406,255.200 283.852 M166.600 282.715 C 167.129 283.185,173.192 285.341,173.400 285.133 C 173.489 285.045,171.905 284.384,169.881 283.666 C 167.857 282.948,166.380 282.520,166.600 282.715 M231.400 283.865 C 230.520 284.200,228.090 284.984,226.000 285.607 C 223.910 286.231,222.451 286.754,222.757 286.771 C 223.798 286.826,233.600 283.730,233.600 283.346 C 233.600 283.104,233.079 283.226,231.400 283.865 M176.000 286.017 C 177.210 286.435,178.560 286.769,179.000 286.758 C 179.440 286.748,178.630 286.393,177.200 285.971 C 173.885 284.992,173.121 285.021,176.000 286.017 M180.600 287.200 C 181.040 287.389,181.760 287.538,182.200 287.532 C 182.843 287.523,182.804 287.457,182.000 287.200 C 180.632 286.762,179.581 286.762,180.600 287.200 M219.800 287.200 C 218.711 287.477,218.693 287.507,219.600 287.525 C 220.150 287.535,220.960 287.389,221.400 287.200 C 222.386 286.776,221.466 286.776,219.800 287.200 M184.800 288.000 C 185.350 288.176,186.250 288.317,186.800 288.313 C 187.698 288.306,187.678 288.274,186.600 288.000 C 184.908 287.569,183.456 287.569,184.800 288.000 M215.400 288.000 C 214.311 288.277,214.293 288.307,215.200 288.325 C 215.750 288.335,216.560 288.189,217.000 288.000 C 217.986 287.576,217.066 287.576,215.400 288.000 M190.000 288.817 C 190.993 289.118,197.886 289.334,197.567 289.054 C 197.475 288.973,195.510 288.818,193.200 288.710 C 190.890 288.602,189.450 288.650,190.000 288.817 M207.600 288.800 L 204.200 289.051 207.600 289.086 C 209.470 289.105,211.450 288.976,212.000 288.800 L 213.000 288.480 212.000 288.514 C 211.450 288.533,209.470 288.662,207.600 288.800 M241.800 290.786 C 240.480 291.413,237.363 292.614,234.874 293.454 C 232.385 294.295,230.509 295.036,230.705 295.102 C 231.245 295.282,238.878 292.549,242.133 291.011 C 243.710 290.266,244.820 289.654,244.600 289.652 C 244.380 289.649,243.120 290.160,241.800 290.786 M161.200 291.477 C 163.866 292.703,174.046 296.087,174.301 295.832 C 174.402 295.732,172.350 294.979,169.742 294.158 C 167.134 293.338,163.760 292.157,162.245 291.534 C 158.855 290.139,158.214 290.104,161.200 291.477 M228.200 295.600 C 227.696 295.817,227.622 295.944,228.000 295.944 C 228.330 295.944,228.960 295.789,229.400 295.600 C 229.904 295.383,229.978 295.256,229.600 295.256 C 229.270 295.256,228.640 295.411,228.200 295.600 M176.200 296.400 C 176.640 296.589,177.360 296.738,177.800 296.732 C 178.443 296.723,178.404 296.657,177.600 296.400 C 176.232 295.962,175.181 295.962,176.200 296.400 M225.000 296.400 L 224.200 296.744 225.000 296.766 C 225.440 296.778,226.070 296.613,226.400 296.400 C 227.195 295.886,226.196 295.886,225.000 296.400 M179.800 297.200 C 180.996 297.714,181.995 297.714,181.200 297.200 C 180.870 296.987,180.240 296.822,179.800 296.834 L 179.000 296.856 179.800 297.200 M221.800 297.200 L 221.000 297.544 221.800 297.544 C 222.240 297.544,222.960 297.389,223.400 297.200 L 224.200 296.856 223.400 296.856 C 222.960 296.856,222.240 297.011,221.800 297.200 M183.600 298.000 C 184.150 298.176,185.050 298.320,185.600 298.320 L 186.600 298.320 185.600 298.000 C 185.050 297.824,184.150 297.680,183.600 297.680 L 182.600 297.680 183.600 298.000 M216.600 298.000 C 215.530 298.272,215.508 298.305,216.400 298.305 C 216.950 298.305,217.940 298.168,218.600 298.000 C 219.670 297.728,219.692 297.695,218.800 297.695 C 218.250 297.695,217.260 297.832,216.600 298.000 M189.800 298.823 C 190.680 299.005,192.120 299.140,193.000 299.124 C 194.567 299.094,194.559 299.087,192.600 298.782 C 189.756 298.339,187.612 298.370,189.800 298.823 M209.200 298.800 L 207.400 299.080 209.000 299.110 C 209.880 299.127,211.410 298.997,212.400 298.820 L 214.200 298.500 212.600 298.510 C 211.720 298.516,210.190 298.646,209.200 298.800 M199.500 299.489 C 200.215 299.578,201.385 299.578,202.100 299.489 C 202.815 299.401,202.230 299.328,200.800 299.328 C 199.370 299.328,198.785 299.401,199.500 299.489 " stroke="none" fill="#8c949a" fill-rule="evenodd"></path><path id="path4" d="M193.300 101.076 C 193.685 101.176,194.315 101.176,194.700 101.076 C 195.085 100.975,194.770 100.893,194.000 100.893 C 193.230 100.893,192.915 100.975,193.300 101.076 M207.505 101.083 C 208.002 101.179,208.722 101.175,209.105 101.075 C 209.487 100.975,209.080 100.896,208.200 100.901 C 207.320 100.905,207.007 100.987,207.505 101.083 M275.183 121.300 C 276.164 122.345,277.019 123.200,277.083 123.200 C 277.384 123.200,277.066 122.841,275.300 121.183 L 273.400 119.400 275.183 121.300 M122.975 125.300 L 121.800 126.600 123.100 125.425 C 123.815 124.779,124.400 124.194,124.400 124.125 C 124.400 123.816,124.070 124.088,122.975 125.300 M133.978 128.700 L 132.600 130.200 134.100 128.822 C 134.925 128.063,135.600 127.388,135.600 127.322 C 135.600 127.016,135.262 127.304,133.978 128.700 M182.778 138.300 L 181.400 139.800 182.900 138.422 C 183.725 137.663,184.400 136.988,184.400 136.922 C 184.400 136.616,184.062 136.904,182.778 138.300 M217.818 140.818 C 218.908 142.037,219.881 142.976,219.981 142.903 C 220.080 142.831,219.189 141.833,217.999 140.686 L 215.836 138.600 217.818 140.818 M219.381 148.100 L 217.800 149.800 219.500 148.219 C 221.081 146.748,221.384 146.400,221.081 146.400 C 221.016 146.400,220.251 147.165,219.381 148.100 M207.246 148.220 C 207.198 149.077,207.877 150.000,208.556 150.000 C 208.775 150.000,208.664 149.775,208.310 149.500 C 207.957 149.225,207.583 148.640,207.480 148.200 C 207.297 147.417,207.292 147.418,207.246 148.220 M256.307 178.290 C 257.026 178.379,258.106 178.377,258.707 178.286 C 259.308 178.195,258.720 178.122,257.400 178.124 C 256.080 178.126,255.588 178.201,256.307 178.290 M240.378 184.700 L 239.000 186.200 240.500 184.822 C 241.896 183.538,242.184 183.200,241.878 183.200 C 241.812 183.200,241.137 183.875,240.378 184.700 M106.893 188.800 C 106.893 189.570,106.975 189.885,107.076 189.500 C 107.176 189.115,107.176 188.485,107.076 188.100 C 106.975 187.715,106.893 188.030,106.893 188.800 M232.181 192.100 L 230.600 193.800 232.300 192.219 C 233.881 190.748,234.184 190.400,233.881 190.400 C 233.816 190.400,233.051 191.165,232.181 192.100 M106.937 193.800 C 106.939 195.560,107.009 196.230,107.093 195.289 C 107.178 194.349,107.177 192.909,107.091 192.089 C 107.005 191.270,106.936 192.040,106.937 193.800 M96.509 199.200 C 96.509 200.190,96.587 200.595,96.682 200.100 C 96.778 199.605,96.778 198.795,96.682 198.300 C 96.587 197.805,96.509 198.210,96.509 199.200 M222.987 200.500 L 220.600 203.000 223.100 200.613 C 224.475 199.299,225.600 198.174,225.600 198.113 C 225.600 197.817,225.205 198.178,222.987 200.500 M233.775 208.900 L 232.600 210.200 233.900 209.025 C 234.615 208.379,235.200 207.794,235.200 207.725 C 235.200 207.416,234.870 207.688,233.775 208.900 M241.400 224.400 C 242.259 225.280,243.052 226.000,243.162 226.000 C 243.272 226.000,242.659 225.280,241.800 224.400 C 240.941 223.520,240.148 222.800,240.038 222.800 C 239.928 222.800,240.541 223.520,241.400 224.400 M244.800 227.325 C 244.800 227.394,245.385 227.979,246.100 228.625 L 247.400 229.800 246.225 228.500 C 245.130 227.288,244.800 227.016,244.800 227.325 M228.400 232.600 C 229.595 233.810,230.663 234.800,230.773 234.800 C 230.883 234.800,229.995 233.810,228.800 232.600 C 227.605 231.390,226.537 230.400,226.427 230.400 C 226.317 230.400,227.205 231.390,228.400 232.600 M251.600 233.800 C 252.346 234.570,253.047 235.200,253.157 235.200 C 253.267 235.200,252.746 234.570,252.000 233.800 C 251.254 233.030,250.553 232.400,250.443 232.400 C 250.333 232.400,250.854 233.030,251.600 233.800 M233.600 237.800 C 234.346 238.570,235.047 239.200,235.157 239.200 C 235.267 239.200,234.746 238.570,234.000 237.800 C 233.254 237.030,232.553 236.400,232.443 236.400 C 232.333 236.400,232.854 237.030,233.600 237.800 M239.400 243.200 C 240.259 244.080,241.052 244.800,241.162 244.800 C 241.272 244.800,240.659 244.080,239.800 243.200 C 238.941 242.320,238.148 241.600,238.038 241.600 C 237.928 241.600,238.541 242.320,239.400 243.200 M216.900 249.476 C 217.285 249.576,217.915 249.576,218.300 249.476 C 218.685 249.375,218.370 249.293,217.600 249.293 C 216.830 249.293,216.515 249.375,216.900 249.476 M267.191 261.500 L 263.800 265.000 267.300 261.609 C 270.551 258.459,270.982 258.000,270.691 258.000 C 270.631 258.000,269.056 259.575,267.191 261.500 M134.383 261.300 C 136.041 263.066,136.400 263.384,136.400 263.083 C 136.400 263.019,135.545 262.164,134.500 261.183 L 132.600 259.400 134.383 261.300 M124.800 266.600 C 125.546 267.370,126.247 268.000,126.357 268.000 C 126.467 268.000,125.946 267.370,125.200 266.600 C 124.454 265.830,123.753 265.200,123.643 265.200 C 123.533 265.200,124.054 265.830,124.800 266.600 M275.586 268.300 L 273.400 270.600 275.700 268.414 C 277.837 266.382,278.183 266.000,277.886 266.000 C 277.824 266.000,276.789 267.035,275.586 268.300 M128.800 270.525 C 128.800 270.594,129.385 271.179,130.100 271.825 L 131.400 273.000 130.225 271.700 C 129.130 270.488,128.800 270.216,128.800 270.525 M199.312 289.095 C 200.364 289.177,201.984 289.176,202.912 289.092 C 203.840 289.008,202.980 288.941,201.000 288.942 C 199.020 288.943,198.260 289.012,199.312 289.095 M195.705 299.487 C 196.314 299.579,197.214 299.577,197.705 299.482 C 198.197 299.387,197.700 299.311,196.600 299.314 C 195.500 299.317,195.097 299.395,195.705 299.487 M203.900 299.482 C 204.395 299.578,205.205 299.578,205.700 299.482 C 206.195 299.387,205.790 299.309,204.800 299.309 C 203.810 299.309,203.405 299.387,203.900 299.482 " stroke="none" fill="#838c93" fill-rule="evenodd"></path></g></svg>